<?xml version="1.0" standalone="no"?><!DOCTYPE svg PUBLIC "-//W3C//DTD SVG 1.1//EN" "http://www.w3.org/Graphics/SVG/1.1/DTD/svg11.dtd"><svg t="1560304700710" class="icon" style="" viewBox="0 0 1024 1024" version="1.1" xmlns="http://www.w3.org/2000/svg" p-id="5099" xmlns:xlink="http://www.w3.org/1999/xlink" width="32" height="32"><defs><style type="text/css"></style></defs><path d="M516.096 778.24l159.744-192.512 2.048-2.048c38.912-40.96 61.44-96.256 61.44-153.6 0-124.928-100.352-225.28-225.28-225.28s-225.28 100.352-225.28 225.28c0 49.152 16.384 94.208 43.008 133.12l2.048 2.048 2.048 2.048c6.144 6.144 10.24 14.336 16.384 20.48l2.048 2.048 161.792 188.416zM204.8 430.08c0-169.984 137.216-307.2 307.2-307.2s307.2 137.216 307.2 307.2c0 81.92-30.72 155.648-83.968 210.944l-219.136 266.24-225.28-262.144c-8.192-8.192-16.384-16.384-22.528-26.624L266.24 614.4c-38.912-51.2-61.44-114.688-61.44-184.32z" fill="#FFA204" p-id="5100"></path><path d="M512 491.52c34.816 0 61.44-26.624 61.44-61.44s-26.624-61.44-61.44-61.44-61.44 26.624-61.44 61.44 26.624 61.44 61.44 61.44z m0 81.92c-79.872 0-143.36-63.488-143.36-143.36s63.488-143.36 143.36-143.36 143.36 63.488 143.36 143.36-63.488 143.36-143.36 143.36z" fill="#F7C472" p-id="5101"></path></svg>