<?xml version="1.0" standalone="no"?><!DOCTYPE svg PUBLIC "-//W3C//DTD SVG 1.1//EN" "http://www.w3.org/Graphics/SVG/1.1/DTD/svg11.dtd"><svg t="1562321935646" class="icon" viewBox="0 0 1024 1024" version="1.1" xmlns="http://www.w3.org/2000/svg" p-id="2137" xmlns:xlink="http://www.w3.org/1999/xlink" width="128" height="128"><defs><style type="text/css"></style></defs><path d="M512 77.710105c-240.54008 0-435.439309 194.998967-435.439309 435.439309 0 240.441559 194.899229 435.439309 435.439309 435.439309 240.441559 0 435.440525-194.99775 435.440525-435.439309 0-240.440343-194.998967-435.439309-435.440525-435.439309z m0 0" fill="#EDF5FF" p-id="2138"></path><path d="M483.090722 538.431653c10.240122-0.006082 20.471729-0.012163 30.711851 0-0.017028 53.787701 0 107.571754-0.010947 161.353374-18.015997 0.063248-36.025913 0.010947-54.038262 0.027975-5.787207-0.154471-11.674152 0.505985-17.373785-0.829524-12.067021-2.459381-22.639195-10.018753-30.128021-19.638556-5.717878-7.080146-9.016513-15.849748-10.653668-24.728818-1.640803-9.275587-1.448626-18.833358 0.081493-28.10408 2.954419-10.195118 8.2624-19.823435 15.827854-27.325641 6.319952-6.31387 14.191916-11.025858 22.710958-13.693228 3.42878-1.055758 6.974327-1.959477 10.589203-1.931502 10.759486 0.024326 21.521405 0.006082 32.283324 0.006082 0.017028-15.043333 0.010947-30.087883 0-45.136082m-34.106574 73.127045c-6.206835 2.860763-12.004989 7.396387-14.960625 13.69931-2.0507 5.523268-3.056589 11.428457-3.192816 17.316618-0.040138 7.14461 2.113948 14.346387 6.177643 20.239414 4.782535 6.872157 13.085073 11.310475 21.508026 10.95288 8.219829-0.02311 16.436009 0.006082 24.648541-0.012163 0.018245-21.370583 0.018245-42.744815 0-64.115398-9.196527-0.02311-18.391837 0.013379-27.583499-0.02311-2.34748-0.045004-4.483322 1.080084-6.59727 1.942449z m81.388228-25.600913c10.196334-0.004865 20.401183-0.004865 30.603599 0 0.029191 25.041409-0.004865 50.081602 0.018245 75.124228 0.006082 3.167274 0.909801 6.457395 3.073618 8.849878 2.364508 2.632097 5.973303 3.824082 9.447087 3.828947 10.78138 0 21.567625 0 32.350221-0.006081 0.012163-29.252278 0.024326-58.505772-0.006081-87.748319 10.208498-0.107035 20.423077-0.043787 30.636439-0.037706-0.006082 37.953766 0 75.902667-0.006081 113.850351-24.758009 0.064464-49.520883 0.025543-74.278892 0.025543-7.856152-0.710326-15.736631-3.537032-21.681958-8.838932-6.683629-5.991548-10.549065-15.039685-10.167143-24.017275 0.017028-27.005751-0.007298-54.018801 0.010946-81.030634z m0 0" fill="#EDF5FF" p-id="2139"></path><path d="M450.626167 271.880764c9.400867-1.614045 19.21528 0.881825 27.11522 6.104664 12.322446 8.103063 20.459566 21.26598 25.127767 35.020024 7.154341 21.542083 6.738362 45.617741-1.440112 66.821689-4.130592 10.412838-10.287558 20.24063-18.919717 27.508088-6.968245 5.901541-15.801095 9.899555-25.029246 10.094164-9.135711 0.317457-18.092625-3.142947-25.28832-8.655268-11.473461-8.854743-18.96472-21.983604-23.164641-35.682914-6.122909-20.436456-5.563406-42.909017 1.910824-62.916114 4.557517-11.946606 11.807946-23.223024 22.259706-30.816454 5.158375-3.743805 11.126812-6.434285 17.428519-7.477879z m137.597606 10.690156c6.61065-1.421867 13.390367 0.396517 19.346641 3.277958 8.444847 4.079507 15.617432 10.463923 21.413154 17.784898 8.082386 10.310668 13.693228 22.687848 15.402145 35.720619 1.314832 9.065165-0.150823 18.261692-2.686831 26.988723-3.045643 10.522306-7.666408 20.638364-13.931625 29.641498-5.494076 7.846422-12.337042 14.918053-20.668771 19.754105-7.707762 4.489404-16.737655 6.788231-25.666593 6.186158-10.912742-0.712758-21.955628-4.461428-30.006391-12.06094-8.120092-7.526532-12.717747-18.119384-14.831695-28.827785-2.240445-11.377372-2.17598-23.103826-0.829524-34.583368 1.471736-10.167143 5.76653-19.710318 10.978422-28.482353 5.502591-9.085843 12.270145-17.475955 20.398751-24.351761 6.113179-5.119453 13.177513-9.455601 21.082317-11.047752z m-247.205464 97.715987c9.982264-1.835413 20.466864 0.262723 29.298497 5.155942 13.043718 7.195695 23.153695 19.04378 29.662175 32.32103 2.632097 5.497725 4.659687 11.357911 5.211892 17.463792 1.626208 15.29511 1.306318 31.056067-3.102809 45.891411-2.983611 10.079569-8.274563 19.687209-16.242616 26.666401-9.850902 8.745276-23.162209 12.986552-36.203495 13.162916-10.903011 0.162986-21.73426-3.888546-29.935844-11.061131-10.833681-9.385055-17.56353-22.729202-21.098129-36.450406-2.31464-9.318158-3.393507-19.096081-1.864605-28.627094 2.233147-15.926375 6.898916-31.896538 16.066251-45.280822 6.576593-9.597909 16.540612-17.287427 28.208683-19.242039z m321.08054 35.187875c11.894304-1.48025 24.445417 0.139876 35.037052 5.989115 9.786438 5.312846 17.456494 13.976629 22.597841 23.775229 4.258305 8.173609 7.201777 17.130523 7.981432 26.341646 0.430574 13.15197 0.642212 26.469358-2.126111 39.403608-1.927853 9.043272-5.301899 17.983157-11.145057 25.250615-5.507456 6.974327-13.372122 11.959985-21.937384 14.239352-8.6054 2.379104-17.659618 2.437487-26.497333 1.710133-10.508926-0.988861-21.188136-3.955443-29.567303-10.607447-7.370844-5.744636-12.343123-14.099476-15.036035-22.961518-3.656231-11.894304-4.007744-24.487988-3.792458-36.833543 0.37584-12.930601 2.188143-26.047298 7.367196-37.989039 3.860571-8.928938 10.080785-17.066059 18.525631-22.073611 5.620573-3.472568 12.071886-5.396772 18.592529-6.24454z m-159.694326 47.622221c12.008638-1.434031 24.368789 0.692081 35.293694 5.860186 16.963888 7.971702 30.078153 22.242678 40.085959 37.799295 12.464754 17.983157 27.071432 34.386326 42.386003 49.980648 14.562891 14.665061 29.793536 28.679395 45.725993 41.848393 2.656423 2.26842 5.514754 4.313039 7.940077 6.842966 12.048776 12.317581 19.435432 28.929955 20.994743 46.048315 1.734459 18.144926-2.630881 36.373778-9.974966 52.887631-5.517186 12.125404-15.016575 22.371607-26.774652 28.653853-16.260861 8.792712-35.220715 10.900578-53.436188 10.240121-17.716785-0.733435-35.307073-3.983418-52.211362-9.326672a167.078549 167.078549 0 0 0-63.328444-4.611034c-9.850902 1.088598-19.405024 3.842326-29.185381 5.355417-22.035905 3.614876-44.486572 4.837269-66.781551 3.370397-18.517117-0.560719-36.368913-9.916583-47.91292-24.326218-7.143394-8.780549-12.115673-19.147166-15.403361-29.928547-3.073618-10.047945-4.955251-20.573899-4.437102-31.1108 0.505985-12.435563 4.199922-24.648541 10.219444-35.516279 8.95813-16.321676 22.522429-29.586763 37.192355-40.814529 4.181677-3.33999 8.843797-6.153317 12.401506-10.2012 6.915944-6.411175 14.204079-12.401506 21.002041-18.936745 12.811403-12.122971 24.636378-25.386842 34.304833-40.175966 2.774405-4.167081 5.115804-8.62851 8.200368-12.590034 12.905059-16.833743 32.464555-28.967661 53.698911-31.349198m-38.251762 75.33465c0.012163 15.048199 0.018245 30.092748 0 45.137298-10.761919 0-21.523838 0.018245-32.283324-0.006082-3.614876-0.027975-7.160422 0.875744-10.589203 1.931502-8.517825 2.666154-16.391006 7.378142-22.710958 13.693228-7.564238 7.502206-12.872218 17.130523-15.827854 27.325641-1.530119 9.270722-1.722296 18.828493-0.081493 28.104081 1.637154 8.87907 4.93579 17.648671 10.653668 24.728817 7.488826 9.618587 18.061001 17.177959 30.128021 19.638556 5.700849 1.335509 11.586578 0.675053 17.373785 0.829524 18.012348-0.018245 36.022264 0.034057 54.038262-0.027975 0.010947-53.78162-0.006082-107.566889 0.010947-161.353374-10.240122-0.012163-20.471729-0.007298-30.711851-0.001216m47.281654 47.526132c-0.018245 27.013049 0.006082 54.026098-0.012163 81.030634-0.380705 8.977591 3.483514 18.025728 10.167143 24.017275 5.945328 5.300683 13.825806 8.128606 21.681959 8.838932 24.758009 0 49.520883 0.038922 74.278891-0.025543 0.006082-37.946468 0-75.895369 0.006082-113.850351-10.213363-0.006082-20.429158-0.06933-30.63644 0.037706 0.029191 29.242547 0.018245 58.496041 0.006082 87.748319-10.78138 0.006082-21.567625 0.006082-32.350222 0.006081-3.472568-0.006082-7.081362-1.19685-9.447086-3.828947-2.163817-2.3937-3.067536-5.683821-3.073618-8.849878-0.02311-25.042626 0.012163-50.082818-0.018245-75.124228-10.199983-0.004865-20.406048-0.004865-30.602383 0z m0 0" fill="#419AFF" p-id="2140"></path><path d="M430.046187 611.558698c2.113948-0.862364 4.24979-1.988668 6.596054-1.942449 9.191662 0.035273 18.386972 0 27.583499 0.02311 0.018245 21.370583 0.018245 42.744815 0 64.115398-8.212531 0.018245-16.428712-0.010947-24.648541 0.012163-8.422953 0.357595-16.725491-4.079507-21.508026-10.95288-4.062478-5.893026-6.217781-13.094803-6.177643-20.239414 0.136227-5.888161 1.143332-11.793351 3.192816-17.316618 2.956852-6.302923 8.756222-10.838547 14.961841-13.69931z m0 0" fill="#419AFF" p-id="2141"></path></svg>