<?xml version="1.0" standalone="no"?><!DOCTYPE svg PUBLIC "-//W3C//DTD SVG 1.1//EN" "http://www.w3.org/Graphics/SVG/1.1/DTD/svg11.dtd"><svg t="1562322123827" class="icon" viewBox="0 0 1024 1024" version="1.1" xmlns="http://www.w3.org/2000/svg" p-id="9130" xmlns:xlink="http://www.w3.org/1999/xlink" width="128" height="128"><defs><style type="text/css"></style></defs><path d="M510.7 956.2c-60.3 0-118.8-11.8-173.9-35.1-53.2-22.5-101-54.7-142-95.7s-73.2-88.8-95.7-142C75.8 628.3 64 569.8 64 509.6c0-60.3 11.8-118.8 35.1-173.9 22.5-53.2 54.7-101 95.7-142s88.8-73.2 142-95.7c55.1-23.3 113.6-35.1 173.9-35.1 60.3 0 118.8 11.8 173.9 35.1 53.2 22.5 101 54.7 142 95.7s73.2 88.8 95.7 142c23.3 55.1 35.1 113.6 35.1 173.9 0 60.3-11.8 118.8-35.1 173.9-22.5 53.2-54.7 101-95.7 142s-88.8 73.2-142 95.7c-55.1 23.2-113.6 35-173.9 35z m0-830.1c-211.5 0-383.5 172-383.5 383.5s172 383.5 383.5 383.5 383.5-172 383.5-383.5-172.1-383.5-383.5-383.5z m0-5.5" fill="#707070" p-id="9131"></path><path d="M741.4 343.1c0 17.6-14.3 31.9-32 31.9H312c-17.6 0-32-14.3-32-31.9 0-17.6 14.3-31.9 32-31.9h397.5c17.6 0 31.9 14.3 31.9 31.9z m0 166.5c0 17.6-14.3 32-32 32H312c-17.6 0-32-14.3-32-32 0-17.6 14.3-31.9 32-31.9h397.5c17.6-0.1 31.9 14.2 31.9 31.9z m0 166.4c0 17.6-14.3 31.9-32 31.9H312c-17.6 0-32-14.3-32-31.9 0-17.6 14.3-32 32-32h397.5c17.6 0 31.9 14.3 31.9 32z m0 0" fill="#707070" p-id="9132"></path></svg>