<?xml version="1.0" standalone="no"?><!DOCTYPE svg PUBLIC "-//W3C//DTD SVG 1.1//EN" "http://www.w3.org/Graphics/SVG/1.1/DTD/svg11.dtd"><svg t="1562385710740" class="icon" viewBox="0 0 1024 1024" version="1.1" xmlns="http://www.w3.org/2000/svg" p-id="2567" xmlns:xlink="http://www.w3.org/1999/xlink" width="128" height="128"><defs><style type="text/css"></style></defs><path d="M512 0C229.229714 0 0 229.229714 0 512s229.229714 512 512 512 512-229.229714 512-512S794.770286 0 512 0z m-44.807314 243.792457a13.9776 13.9776 0 0 1 13.9776-13.9776h61.659428a13.9776 13.9776 0 0 1 13.9776 13.9776 13.970286 13.970286 0 0 1-13.9776 13.9776h-61.659428a13.970286 13.970286 0 0 1-13.9776-13.9776z m209.854171 550.392686h-330.093714a13.9776 13.9776 0 1 1 0-27.9552h330.093714a13.9776 13.9776 0 0 1 0 27.9552z m135.489829-359.131429h-32.643657v278.535315a21.942857 21.942857 0 0 1-21.942858 21.942857H266.049829a21.942857 21.942857 0 0 1-21.942858-21.942857V435.0464h-32.643657a13.9776 13.9776 0 0 1 0-27.9552h35.210972c12.573257-65.3312 70.034286-114.688 139.029943-114.688h252.591542c68.995657 0 126.456686 49.3568 139.029943 114.688h35.210972a13.9776 13.9776 0 0 1 0 27.9552z" fill="#3D3D3D" p-id="2568"></path><path d="M638.295771 292.4032H385.704229c-68.995657 0-126.456686 49.3568-139.029943 114.688h530.651428c-12.573257-65.3312-70.034286-114.688-139.029943-114.688z m88.502858 92.606171a8.842971 8.842971 0 0 1-11.461486-4.988342 70.677943 70.677943 0 0 0-39.8336-39.709258 8.850286 8.850286 0 1 1 6.473143-16.479085 88.4224 88.4224 0 0 1 49.832228 49.700571 8.842971 8.842971 0 0 1-5.002971 11.476114z" fill="#D8D8D8" p-id="2569"></path><path d="M244.106971 713.589029a21.942857 21.942857 0 0 0 21.942858 21.942857h491.900342a21.942857 21.942857 0 0 0 21.942858-21.942857V435.0464H244.106971z" fill="#B5B5B5" p-id="2570"></path><path d="M677.046857 766.229943h-330.093714a13.9776 13.9776 0 1 0 0 27.9552h330.093714a13.9776 13.9776 0 0 0 0-27.9552z" fill="#A8A8A8" p-id="2571"></path><path d="M812.536686 407.0912H211.463314a13.9776 13.9776 0 0 0 0 27.9552h601.073372a13.9776 13.9776 0 0 0 0-27.9552z" fill="#FFFFFF" p-id="2572"></path><path d="M467.192686 229.814857l89.614628 0 0 27.9552-89.614628 0 0-27.9552Z" fill="#FFFFFF" p-id="2573"></path><path d="M681.969371 323.832686a8.850286 8.850286 0 0 0-6.473142 16.479085A70.677943 70.677943 0 0 1 715.337143 380.021029a8.850286 8.850286 0 0 0 16.471771-6.487772 88.4224 88.4224 0 0 0-49.839543-49.700571z" fill="#FFFFFF" p-id="2574"></path></svg>