<?xml version="1.0" standalone="no"?><!DOCTYPE svg PUBLIC "-//W3C//DTD SVG 1.1//EN" "http://www.w3.org/Graphics/SVG/1.1/DTD/svg11.dtd"><svg t="1560135922876" class="icon" style="" viewBox="0 0 1024 1024" version="1.1" xmlns="http://www.w3.org/2000/svg" p-id="3656" xmlns:xlink="http://www.w3.org/1999/xlink" width="32" height="32"><defs><style type="text/css"></style></defs><path d="M827.733333 896H196.266667c-14.933333 0-25.6-10.666667-25.6-25.6V153.6C170.666667 138.666667 181.333333 128 196.266667 128h631.466666c14.933333 0 25.6 10.666667 25.6 25.6v716.8c0 14.933333-10.666667 25.6-25.6 25.6z" fill="#24AA7D" p-id="3657"></path><path d="M827.733333 917.333333H196.266667C170.666667 917.333333 149.333333 896 149.333333 870.4V153.6C149.333333 128 170.666667 106.666667 196.266667 106.666667h631.466666C853.333333 106.666667 874.666667 128 874.666667 153.6v716.8c0 25.6-21.333333 46.933333-46.933334 46.933333zM196.266667 149.333333c-2.133333 0-4.266667 2.133333-4.266667 4.266667v716.8c0 2.133333 2.133333 4.266667 4.266667 4.266667h631.466666c2.133333 0 4.266667-2.133333 4.266667-4.266667V153.6c0-2.133333-2.133333-4.266667-4.266667-4.266667H196.266667z" fill="#24AA7D" p-id="3658"></path><path d="M300.8 426.666667c-6.4 0-10.666667-2.133333-14.933333-6.4l-44.8-44.8c-8.533333-8.533333-8.533333-21.333333 0-29.866667 8.533333-8.533333 21.333333-8.533333 29.866666 0l44.8 44.8c8.533333 8.533333 8.533333 21.333333 0 29.866667-4.266667 4.266667-10.666667 6.4-14.933333 6.4z" fill="#FCFCFC" p-id="3659"></path><path d="M300.8 426.666667c-6.4 0-10.666667-2.133333-14.933333-6.4-8.533333-8.533333-8.533333-21.333333 0-29.866667l104.533333-104.533333c8.533333-8.533333 21.333333-8.533333 29.866667 0s8.533333 21.333333 0 29.866666l-104.533334 104.533334c-4.266667 4.266667-10.666667 6.4-14.933333 6.4z" fill="#FCFCFC" p-id="3660"></path><path d="M300.8 682.666667c-6.4 0-10.666667-2.133333-14.933333-6.4l-44.8-44.8c-8.533333-8.533333-8.533333-21.333333 0-29.866667s21.333333-8.533333 29.866666 0l44.8 44.8c8.533333 8.533333 8.533333 21.333333 0 29.866667-4.266667 4.266667-10.666667 6.4-14.933333 6.4z" fill="#1E1E1E" p-id="3661"></path><path d="M300.8 682.666667c-6.4 0-10.666667-2.133333-14.933333-6.4-8.533333-8.533333-8.533333-21.333333 0-29.866667l104.533333-104.533333c8.533333-8.533333 21.333333-8.533333 29.866667 0s8.533333 21.333333 0 29.866666l-104.533334 104.533334c-4.266667 4.266667-10.666667 6.4-14.933333 6.4z" fill="#FCFCFC" p-id="3662"></path><path d="M300.8 682.666667c-6.4 0-10.666667-2.133333-14.933333-6.4l-44.8-44.8c-8.533333-8.533333-8.533333-21.333333 0-29.866667s21.333333-8.533333 29.866666 0l44.8 44.8c8.533333 8.533333 8.533333 21.333333 0 29.866667-4.266667 4.266667-10.666667 6.4-14.933333 6.4z" fill="#FCFCFC" p-id="3663"></path><path d="M300.8 682.666667c-6.4 0-10.666667-2.133333-14.933333-6.4-8.533333-8.533333-8.533333-21.333333 0-29.866667l104.533333-104.533333c8.533333-8.533333 21.333333-8.533333 29.866667 0s8.533333 21.333333 0 29.866666l-104.533334 104.533334c-4.266667 4.266667-10.666667 6.4-14.933333 6.4z" fill="#FCFCFC" p-id="3664"></path><path d="M746.666667 384H469.333333c-12.8 0-21.333333-8.533333-21.333333-21.333333s8.533333-21.333333 21.333333-21.333334h277.333334c12.8 0 21.333333 8.533333 21.333333 21.333334s-8.533333 21.333333-21.333333 21.333333zM746.666667 640H469.333333c-12.8 0-21.333333-8.533333-21.333333-21.333333s8.533333-21.333333 21.333333-21.333334h277.333334c12.8 0 21.333333 8.533333 21.333333 21.333334s-8.533333 21.333333-21.333333 21.333333z" fill="#FCFCFC" p-id="3665"></path></svg>