<?xml version="1.0" standalone="no"?><!DOCTYPE svg PUBLIC "-//W3C//DTD SVG 1.1//EN" "http://www.w3.org/Graphics/SVG/1.1/DTD/svg11.dtd"><svg t="1562321980745" class="icon" viewBox="0 0 1024 1024" version="1.1" xmlns="http://www.w3.org/2000/svg" p-id="3886" xmlns:xlink="http://www.w3.org/1999/xlink" width="128" height="128"><defs><style type="text/css"></style></defs><path d="M493 422.2c-22 0-44-4.7-64-14.1L197.2 302.9c-24.3-11.4-39-33.9-38.7-58.8 0.2-25 15.4-47.2 39.5-58.1 0.4-0.2 0.9-0.4 1.3-0.6L453.8 86c29.5-13 63.4-13.2 93.1-0.5L797 185.3c25.6 10.9 41.1 33.4 41.4 58.9 0.2 25.4-14.9 48.1-39.5 59.2l-244.5 106c-19.2 8.5-40.3 12.8-61.4 12.8zM221.5 239.7c-2.8 1.4-4.5 3.2-4.5 5 0 1.8 1.7 3.7 4.8 5.1l231.7 105.1c0.1 0.1 0.2 0.1 0.4 0.2 24 11.3 52.7 11.5 77 0.6l244.5-106c2.8-1.3 4.7-3.2 4.6-5.1 0-1.9-2-3.9-5.2-5.3l-250.1-99.8c-15.4-6.6-32.9-6.4-47.5 0.1-0.4 0.2-0.9 0.4-1.3 0.6l-254.4 99.5zM438.4 939.6c-12.1 0-24.3-3-35.5-8.9l-268.2-135c-24.8-13.3-40.1-38.3-40.6-65.6l-6.3-314.7c-0.5-26.6 12.5-51.1 35-65.4 22.4-14.3 50.1-15.9 74.1-4.2l264.4 129.1c26.1 12.8 42.8 39.7 42.5 68.8l10.4 320v1.5c-0.5 26.6-14.6 50.5-37.5 64-12 6.9-25.2 10.4-38.3 10.4zM163.5 396.5c-4.4 0-7.7 1.7-9.3 2.8-2.5 1.6-8.1 6.2-8 14.9l6.3 314.7c0.1 6.2 3.6 11.9 9.1 14.9l267.8 134.8c0.2 0.1 0.5 0.2 0.7 0.4 7.7 4.1 14.4 1.2 16.9-0.3 2.5-1.4 8.1-5.6 8.5-14L445.1 545v-1.5c0.1-6.7-3.7-12.9-9.7-15.9L171.1 398.4c-2.7-1.4-5.3-1.9-7.6-1.9zM615.5 933.5c-12 0-24-3.2-34.8-9.5-21.7-12.7-34.8-35.3-34.9-60.6-0.1-16.2 13-29.3 29.2-29.4h0.1c16.1 0 29.2 13 29.3 29.2 0 6 3.7 9 5.8 10.3 2 1.2 6.1 2.7 10.8 0.1l227.2-131.9c4-2.2 6.3-6.2 6.4-10.5l5.2-338.6c0.1-6.4-4-9.5-5.8-10.5-2-1.2-6.2-2.8-10.9-0.1-14 8-31.9 3.2-39.9-10.9-8-14-3.2-31.9 10.9-39.9 21.9-12.5 48-12.4 69.7 0.5 22 13 34.9 36.1 34.5 61.8L913 732c-0.4 25.1-14.1 48.2-35.9 60.4L649.9 924.3c-10.9 6.1-22.7 9.2-34.4 9.2z" fill="#3FA9F5" p-id="3887"></path><path d="M575.4 735.8c-16.2 0-29.3-13.1-29.3-29.3V547.7c0-11.3 6.5-21.6 16.7-26.4L721.7 446c14.6-6.9 32.1-0.7 39 13.9 6.9 14.6 0.7 32.1-13.9 39l-142.1 67.3v140.4c-0.1 16.1-13.2 29.2-29.3 29.2z" fill="#00FFFF" p-id="3888"></path></svg>