<?xml version="1.0" standalone="no"?><!DOCTYPE svg PUBLIC "-//W3C//DTD SVG 1.1//EN" "http://www.w3.org/Graphics/SVG/1.1/DTD/svg11.dtd"><svg t="1562322072787" class="icon" viewBox="0 0 1024 1024" version="1.1" xmlns="http://www.w3.org/2000/svg" p-id="5587" xmlns:xlink="http://www.w3.org/1999/xlink" width="128" height="128"><defs><style type="text/css"></style></defs><path d="M820.2 1024H203.8v-45.8c0-18.2 14.8-33 33-33h550.4c18.2 0 33 14.8 33 33v45.8z" fill="#0C9BF6" p-id="5588"></path><path d="M236.3 590.8c-5.9 0-11.9-1.3-17.6-4.2-19.5-9.7-27.3-33.4-17.6-52.8l78.8-157.5a39.7 39.7 0 0 1 28.9-21.3c12.5-2 25.2 2.1 34.2 11l112.5 112.5L514 302.6c4.3-12.9 15-22.7 28.3-25.9 13.3-3.1 27.2 0.8 36.9 10.5l123.6 123.6 130.9-196.3c12.1-18.1 36.5-23 54.6-10.9s23 36.5 10.9 54.6L741.7 494.5c-6.5 9.8-17.1 16.2-28.9 17.3-11.7 1.2-23.4-3-31.7-11.3L568.6 388 510 563.8c-4.3 12.9-15 22.7-28.3 25.9-13.3 3.1-27.2-0.8-36.9-10.5L325.9 460.3 271.5 569c-6.9 13.8-20.8 21.8-35.2 21.8z" fill="#19B91D" p-id="5589"></path><path d="M925.5 0h-827C44.1 0 0 44.1 0 98.5V768c0 54.4 44.1 98.5 98.5 98.5h334.8v0.3c0 14 11.3 25.3 25.3 25.3h107c14 0 25.3-11.3 25.3-25.3v-0.3h334.8c54.4 0 98.5-44.1 98.5-98.5V98.5C1024 44.1 979.9 0 925.5 0zM78.8 123.1c0-24.5 19.8-44.3 44.3-44.3h777.8c24.5 0 44.3 19.8 44.3 44.3v585.8H78.8V123.1z" fill="#0C9BF6" p-id="5590"></path></svg>