<?xml version="1.0" standalone="no"?><!DOCTYPE svg PUBLIC "-//W3C//DTD SVG 1.1//EN" "http://www.w3.org/Graphics/SVG/1.1/DTD/svg11.dtd"><svg t="1562391511431" class="icon" viewBox="0 0 1024 1024" version="1.1" xmlns="http://www.w3.org/2000/svg" p-id="14974" xmlns:xlink="http://www.w3.org/1999/xlink" width="128" height="128"><defs><style type="text/css"></style></defs><path d="M320.802 586.206c0 0 0 0 0 0 0 21.745 17.628 39.373 39.373 39.373 21.745 0 39.373-17.628 39.373-39.373 0 0 0 0 0 0 0 0 0 0 0 0 0-21.745-17.628-39.373-39.373-39.373-21.745 0-39.373 17.628-39.373 39.373s0 0 0 0z" fill="#4f68b0" p-id="14975"></path><path d="M624.913 586.206c0 0 0 0 0 0 0 21.745 17.628 39.373 39.373 39.373 21.745 0 39.373-17.628 39.373-39.373 0 0 0 0 0 0 0 0 0 0 0 0 0-21.745-17.628-39.373-39.373-39.373-21.745 0-39.373 17.628-39.373 39.373s0 0 0 0z" fill="#4f68b0" p-id="14976"></path><path d="M384.427 465.698h255.625c18.79 0 41.37-14.848 42.82-33.638l-6.434-25.685-17.579-47.275c-1.587-8.806-5.171-10.667-10.906-18.074h-271.087c-5.683 7.202-9.54 8.858-11.247 18.176l-0.239 1.075-17.34 46.080-6.434 25.685c1.468 18.807 24.047 33.655 42.82 33.655z" fill="#4f68b0" p-id="14977"></path><path d="M512 29.867c-266.274 0-482.133 215.842-482.133 482.133 0 266.274 215.859 482.133 482.133 482.133s482.133-215.859 482.133-482.133c0-266.291-215.859-482.133-482.133-482.133zM791.194 448.512c0 8.050-6.525 14.575-14.575 14.575l-19.371 3.294c6.281 12.254 9.865 26.266 9.865 42.564l7.339 83.849c0 2.423-0.205 4.898-0.478 7.407 0.29 1.502 0.478 3.106 0.478 4.693v100.864c0 14.37-11.657 25.993-25.993 25.993h-39.663c-14.355 0-25.993-11.637-25.993-25.993v-32.393h-341.111v32.393c0 14.37-11.639 25.993-25.993 25.993h-39.663c0 0 0 0 0 0-14.355 0-25.993-11.637-25.993-25.993v-100.864c0-1.604 0.205-3.209 0.478-4.693-0.304-2.223-0.478-4.793-0.478-7.403 0-0.001 0-0.003 0-0.004l7.339-83.847c0-16.282 3.567-30.259 9.813-42.479l-19.797-3.379c-8.050 0-14.575-6.525-14.575-14.575v-12.629c0-8.073 6.519-14.575 14.575-14.575h52.309c2.724 0.035 5.258 0.815 7.417 2.145l23.473-71.367c6.468-33.673 30.805-59.853 70.912-59.853h221.508c34.97 0 63.403 19.49 70.929 59.887l23.586 71.031c1.998-1.149 4.391-1.831 6.942-1.844l52.177 0.001c8.055 0 14.558 6.502 14.558 14.575v12.629z" fill="#4f68b0" p-id="14978"></path></svg>