<?xml version="1.0" standalone="no"?><!DOCTYPE svg PUBLIC "-//W3C//DTD SVG 1.1//EN" "http://www.w3.org/Graphics/SVG/1.1/DTD/svg11.dtd"><svg t="1560136323298" class="icon" style="" viewBox="0 0 1024 1024" version="1.1" xmlns="http://www.w3.org/2000/svg" p-id="13936" xmlns:xlink="http://www.w3.org/1999/xlink" width="32" height="32"><defs><style type="text/css"></style></defs><path d="M97.58864 358.79963s-5.572236 108.706019 7.640376 170.463465c0 0 27.712167 132.945698 111.092508 181.546977 0 0 84.818556 59.206138 185.387485 49.093478 0 0-99.388102-231.110076-171.064038-280.113243 0 0 167.487692 130.687904 188.458085 240.565719 0 0 41.229581-216.700833-152.556899-318.615408 0.002258 0-93.759421-54.385748-168.957517-42.940988zM238.174714 35.526392s-16.578983 89.214482-12.463024 141.699167c0 0 8.254496 112.907774 71.802373 162.256383 0 0 63.565939 58.266896 147.781664 60.989796 0 0-56.670635-201.92357-110.498708-250.310359 0 0 124.007091 126.436477 129.231627 219.543397 0 0 57.937258-174.525237-90.971046-280.083891 0.002258 0.002258-71.484023-55.268545-134.882886-54.094493zM909.017313 271.348485s10.069762 143.778595-5.895101 225.869736c0 0-33.39955 176.692719-142.581964 243.101222 0 0-110.828346 80.488107-244.223345 69.589734 0 0 125.856224-308.430498 219.536623-375.0851 0 0-218.500295 177.166856-243.548265 323.15809 0 0-59.946695-285.875133 194.086766-425.59873 0-0.002258 122.787882-74.328844 222.625286-61.034952z" fill="#91B85B" p-id="13937"></path><path d="M595.414208 229.154826m-75.841566 0a75.841566 75.841566 0 1 0 151.683133 0 75.841566 75.841566 0 1 0-151.683133 0Z" fill="#E0A453" p-id="13938"></path><path d="M502.221493 899.498452c-206.071138 0-385.848005-112.519434-481.278194-279.462998C80.625832 832.613556 275.8573 988.49167 507.509247 988.49167c245.072276 0 449.380077-174.468792 495.542938-405.97624-88.826141 187.383375-279.679746 316.983022-500.830692 316.983022z" fill="#96693A" p-id="13939"></path></svg>