<?xml version="1.0" standalone="no"?><!DOCTYPE svg PUBLIC "-//W3C//DTD SVG 1.1//EN" "http://www.w3.org/Graphics/SVG/1.1/DTD/svg11.dtd"><svg t="1562382817831" class="icon" viewBox="0 0 1024 1024" version="1.1" xmlns="http://www.w3.org/2000/svg" p-id="2264" xmlns:xlink="http://www.w3.org/1999/xlink" width="128" height="128"><defs><style type="text/css"></style></defs><path d="M871.055256 171.453416c-38.520521-41.172076-88.578954-72.978568-148.192713-93.896659-58.11405-20.90836-127.775743-31.450114-206.987898-32.106921-161.411565-1.33794-278.314718 37.054868-357.203334 117.611045-74.871146 77.098209-112.180223 190.382841-113.464646 345.323639-1.278341 154.434814 34.645359 268.327601 108.729553 346.664012 77.544594 81.853979 192.795999 122.164907 354.20878 123.502848 309.865785 2.565197 468.095485-153.060384 470.660682-462.929819 1.266178-152.948484-34.167349-265.339128-107.750424-344.168145z" fill="#01004C" p-id="2265"></path><path d="M298.967744 534.705457l19.90977 54.420119h238.922102s-31.855145 135.38984-172.554176 149.989203l13.273585 34.510348s164.589782 0 245.558288-184.499551h35.838558l45.129947-54.420119-426.076858-3.982197M563.108807 505.504299h100.878275s17.255783-218.247274-207.065741-255.130643l-73.002895 127.566538c0-0.001216 131.249523-15.829052 179.190361 127.564105z" fill="#F8B600" p-id="2266"></path></svg>