<?xml version="1.0" standalone="no"?><!DOCTYPE svg PUBLIC "-//W3C//DTD SVG 1.1//EN" "http://www.w3.org/Graphics/SVG/1.1/DTD/svg11.dtd"><svg t="1561079830000" class="icon" viewBox="0 0 1024 1024" version="1.1" xmlns="http://www.w3.org/2000/svg" p-id="8193" xmlns:xlink="http://www.w3.org/1999/xlink" width="128" height="128"><defs><style type="text/css"></style></defs><path d="M170.666667 149.333333h341.333333v768H170.666667z" fill="#1E91D0" p-id="8194" data-spm-anchor-id="a313x.7781069.0.i21" class="selected"></path><path d="M654.933333 938.666667H196.266667C170.666667 938.666667 149.333333 917.333333 149.333333 891.733333V174.933333C149.333333 149.333333 170.666667 128 196.266667 128h631.466666C853.333333 128 874.666667 149.333333 874.666667 174.933333v544L654.933333 938.666667zM196.266667 170.666667c-2.133333 0-4.266667 2.133333-4.266667 4.266666v716.8c0 2.133333 2.133333 4.266667 4.266667 4.266667h441.6l194.133333-194.133333V174.933333c0-2.133333-2.133333-4.266667-4.266667-4.266666H196.266667z" fill="#1E1E1E" p-id="8195"></path><path d="M300.8 448c-6.4 0-10.666667-2.133333-14.933333-6.4l-44.8-44.8c-8.533333-8.533333-8.533333-21.333333 0-29.866667 8.533333-8.533333 21.333333-8.533333 29.866666 0l44.8 44.8c8.533333 8.533333 8.533333 21.333333 0 29.866667-4.266667 4.266667-10.666667 6.4-14.933333 6.4z" fill="#1E1E1E" p-id="8196"></path><path d="M300.8 448c-6.4 0-10.666667-2.133333-14.933333-6.4-8.533333-8.533333-8.533333-21.333333 0-29.866667l104.533333-104.533333c8.533333-8.533333 21.333333-8.533333 29.866667 0s8.533333 21.333333 0 29.866667l-104.533334 104.533333c-4.266667 4.266667-10.666667 6.4-14.933333 6.4zM300.8 684.8c-6.4 0-10.666667-2.133333-14.933333-6.4l-44.8-44.8c-8.533333-8.533333-8.533333-21.333333 0-29.866667s21.333333-8.533333 29.866666 0l44.8 44.8c8.533333 8.533333 8.533333 21.333333 0 29.866667-4.266667 4.266667-10.666667 6.4-14.933333 6.4z" fill="#1E1E1E" p-id="8197"></path><path d="M300.8 684.8c-6.4 0-10.666667-2.133333-14.933333-6.4-8.533333-8.533333-8.533333-21.333333 0-29.866667l104.533333-106.666666c8.533333-8.533333 21.333333-8.533333 29.866667 0s8.533333 21.333333 0 29.866666l-104.533334 106.666667c-4.266667 4.266667-10.666667 6.4-14.933333 6.4zM746.666667 405.333333H469.333333c-12.8 0-21.333333-8.533333-21.333333-21.333333s8.533333-21.333333 21.333333-21.333333h277.333334c12.8 0 21.333333 8.533333 21.333333 21.333333s-8.533333 21.333333-21.333333 21.333333zM746.666667 642.133333H469.333333c-12.8 0-21.333333-8.533333-21.333333-21.333333s8.533333-21.333333 21.333333-21.333333h277.333334c12.8 0 21.333333 8.533333 21.333333 21.333333s-8.533333 21.333333-21.333333 21.333333zM667.733333 917.333333h-42.666666v-172.8c0-29.866667 23.466667-53.333333 53.333333-53.333333H853.333333v42.666667h-172.8c-6.4 0-10.666667 4.266667-10.666666 10.666666V917.333333z" fill="#1E1E1E" p-id="8198"></path></svg>