<?xml version="1.0" standalone="no"?><!DOCTYPE svg PUBLIC "-//W3C//DTD SVG 1.1//EN" "http://www.w3.org/Graphics/SVG/1.1/DTD/svg11.dtd"><svg t="1562322085133" class="icon" viewBox="0 0 1024 1024" version="1.1" xmlns="http://www.w3.org/2000/svg" p-id="6455" xmlns:xlink="http://www.w3.org/1999/xlink" width="128" height="128"><defs><style type="text/css"></style></defs><path d="M574.913087 547.292707c-55.240759 0-99.228771-45.010989-99.228771-99.228771s45.010989-99.228771 99.228771-99.228771 99.228771 45.010989 99.228771 99.228771-43.988012 99.228771-99.228771 99.228771z m0-152.423576c-28.643357 0-53.194805 23.528472-53.194805 53.194805s23.528472 53.194805 53.194805 53.194805 53.194805-23.528472 53.194805-53.194805-23.528472-53.194805-53.194805-53.194805z" fill="" p-id="6456"></path><path d="M574.913087 545.246753c54.217782 0 97.182817-43.988012 97.182817-97.182817 0-54.217782-43.988012-97.182817-97.182817-97.182817-54.217782 0-97.182817 43.988012-97.182817 97.182817s43.988012 97.182817 97.182817 97.182817z m0-152.423576c30.689311 0 55.240759 24.551449 55.240759 55.240759s-24.551449 55.240759-55.240759 55.240759-55.240759-24.551449-55.240759-55.240759 24.551449-55.240759 55.240759-55.240759z" fill="" p-id="6457"></path><path d="M319.168831 787.692308c-15.344655 0-29.666334-6.137862-39.896104-16.367633l-27.620379-28.643356c-10.22977-10.22977-16.367632-24.551449-16.367633-39.896104s6.137862-29.666334 16.367633-39.896104L378.501499 533.994006c-12.275724-27.62038-18.413586-57.286713-18.413587-86.953047 0-117.642358 96.15984-213.802198 213.802198-213.802198 117.642358 0 213.802198 96.15984 213.802198 213.802198 0 118.665335-96.15984 214.825175-214.825175 214.825175-29.666334 0-60.355644-6.137862-87.976024-18.413587l-20.459541 21.482518 7.16084 7.160839c8.183816 8.183816 12.275724 19.436563 12.275724 30.689311s-4.091908 22.505495-12.275724 30.68931l-17.39061 17.39061c-8.183816 8.183816-19.436563 12.275724-30.68931 12.275724s-22.505495-4.091908-30.689311-12.275724l-7.160839-7.160839-26.597403 26.597402c-10.22977 11.252747-24.551449 17.390609-39.896104 17.39061z m255.744256-508.419581c-92.067932 0-167.768232 75.7003-167.768232 167.768232 0 27.62038 7.160839 56.263736 20.459541 80.815185 5.114885 9.206793 3.068931 20.45954-4.091908 27.620379L283.364635 695.624376c-2.045954 2.045954-3.068931 4.091908-3.068931 7.160839 0 3.068931 1.022977 5.114885 3.068931 7.160839l27.62038 28.643357c2.045954 2.045954 4.091908 3.068931 7.160839 3.068931 3.068931 0 5.114885-1.022977 7.160839-3.068931L368.271728 695.624376c4.091908-4.091908 10.22977-7.160839 16.367633-7.16084 6.137862 0 12.275724 2.045954 16.367632 7.16084l21.482517 21.482517 13.298702-13.298701-21.482518-21.482518c-9.206793-9.206793-9.206793-23.528472 0-32.735264l50.125874-50.125875c4.091908-4.091908 10.22977-7.160839 16.367633-7.160839 4.091908 0 8.183816 1.022977 11.252747 3.068931 24.551449 13.298701 53.194805 20.45954 80.815185 20.459541 92.067932 0 167.768232-75.7003 167.768232-167.768232 2.045954-93.090909-73.654346-168.791209-165.722278-168.791209z" fill="" p-id="6458"></path><path d="M574.913087 235.284715c-116.619381 0-211.756244 95.136863-211.756244 211.756244 0 29.666334 6.137862 60.355644 18.413587 87.976024L252.675325 663.912088c-10.22977 10.22977-16.367632 24.551449-16.367633 38.873127s6.137862 28.643357 16.367633 38.873127l27.620379 28.643356c10.22977 10.22977 24.551449 16.367632 38.873127 16.367633s28.643357-6.137862 37.85015-16.367633l28.643357-28.643356 8.183816 8.183816c8.183816 8.183816 18.413586 12.275724 29.666334 12.275724 11.252747 0 21.482517-4.091908 29.666333-12.275724l17.39061-17.39061c8.183816-8.183816 12.275724-18.413586 12.275724-29.666333s-4.091908-21.482517-12.275724-29.666334l-8.183817-8.183816 24.551449-24.551449c27.62038 12.275724 58.30969 19.436563 87.976024 19.436564 116.619381 0 212.779221-95.136863 212.779221-212.779221C786.669331 330.421578 691.532468 235.284715 574.913087 235.284715zM417.374625 680.27972l22.505495 22.505495-16.367632 16.367632-22.505495-22.505494c-4.091908-4.091908-9.206793-6.137862-15.344655-6.137862-5.114885 0-11.252747 2.045954-15.344656 6.137862L327.352647 739.612388c-2.045954 2.045954-5.114885 4.091908-9.206793 4.091908s-6.137862-1.022977-9.206793-4.091908l-27.62038-27.62038c-2.045954-2.045954-3.068931-5.114885-3.068931-9.206793 0-3.068931 1.022977-6.137862 3.068931-9.206793l140.147852-140.147853c6.137862-7.160839 8.183816-17.390609 3.068932-25.574425-13.298701-24.551449-20.45954-53.194805-20.459541-81.838162C404.075924 351.904096 480.799201 276.203796 573.89011 276.203796c93.090909 0 169.814186 76.723277 169.814186 170.837163s-76.723277 169.814186-169.814186 169.814186c-28.643357 0-56.263736-7.160839-81.838162-21.482518-3.068931-2.045954-7.160839-3.068931-10.22977-3.068931-6.137862 0-11.252747 2.045954-15.344656 6.137862l-50.125874 50.125875c-7.160839 10.22977-7.160839 23.528472 1.022977 31.712287z" fill="" p-id="6459"></path><path d="M511.488511 1.022977C229.146853 1.022977 0 230.16983 0 512.511489s229.146853 511.488511 511.488511 511.488511 511.488511-229.146853 511.488512-511.488511S793.83017 1.022977 511.488511 1.022977z m0 968.759241c-251.652348 0-457.270729-204.595405-457.270729-457.270729S259.836164 56.263736 511.488511 56.263736s457.270729 204.595405 457.27073 457.27073-204.595405 456.247752-457.27073 456.247752z" fill="" p-id="6460"></path></svg>