<?xml version="1.0" standalone="no"?><!DOCTYPE svg PUBLIC "-//W3C//DTD SVG 1.1//EN" "http://www.w3.org/Graphics/SVG/1.1/DTD/svg11.dtd"><svg t="1562322095698" class="icon" viewBox="0 0 1024 1024" version="1.1" xmlns="http://www.w3.org/2000/svg" p-id="7392" xmlns:xlink="http://www.w3.org/1999/xlink" width="128" height="128"><defs><style type="text/css"></style></defs><path d="M512 512m-497.777778 0a497.777778 497.777778 0 1 0 995.555556 0 497.777778 497.777778 0 1 0-995.555556 0Z" fill="#D9E021" p-id="7393"></path><path d="M736 241.777778H704v-47.928889a16.071111 16.071111 0 1 0-32 0V241.777778h-320v-47.928889a16.071111 16.071111 0 1 0-32 0V241.777778h-32a96.142222 96.142222 0 0 0-96 96v384a96.142222 96.142222 0 0 0 96 96h448a96.142222 96.142222 0 0 0 96-96v-384A96.142222 96.142222 0 0 0 736 241.777778z m64 480a63.857778 63.857778 0 0 1-64 64h-448a63.857778 63.857778 0 0 1-64-64V433.777778h576z m0-320h-576v-64a63.857778 63.857778 0 0 1 64-64h32v48.071111a16.071111 16.071111 0 1 0 32 0v-48.071111h320v48.071111a16.071111 16.071111 0 0 0 32 0v-48.071111h32a63.857778 63.857778 0 0 1 64 64z" fill="#FFFFFF" p-id="7394"></path><path d="M335.928889 481.706667A48.071111 48.071111 0 1 0 384 529.777778a48.071111 48.071111 0 0 0-48.071111-48.071111z m0 64a15.928889 15.928889 0 1 1 16.071111-15.928889 15.928889 15.928889 0 0 1-16.071111 15.928889zM512 481.706667a48.071111 48.071111 0 1 0 47.928889 48.071111A48.071111 48.071111 0 0 0 512 481.706667z m0 64a15.928889 15.928889 0 1 1 15.928889-15.928889A16.071111 16.071111 0 0 1 512 545.706667zM687.928889 481.706667a48.071111 48.071111 0 1 0 48.071111 48.071111 48.071111 48.071111 0 0 0-48.071111-48.071111z m0 64a15.928889 15.928889 0 1 1 16.071111-15.928889 15.928889 15.928889 0 0 1-16.071111 15.928889zM335.928889 641.848889A48.071111 48.071111 0 1 0 384 689.777778a47.928889 47.928889 0 0 0-48.071111-47.928889z m0 63.857778a15.928889 15.928889 0 1 1 16.071111-15.928889 15.928889 15.928889 0 0 1-16.071111 15.928889zM512 641.848889a48.071111 48.071111 0 1 0 47.928889 47.928889A47.928889 47.928889 0 0 0 512 641.848889z m0 63.857778a15.928889 15.928889 0 1 1 15.928889-15.928889A16.071111 16.071111 0 0 1 512 705.706667zM687.928889 641.848889a48.071111 48.071111 0 1 0 48.071111 47.928889 47.928889 47.928889 0 0 0-48.071111-47.928889z m0 63.857778a15.928889 15.928889 0 1 1 16.071111-15.928889 15.928889 15.928889 0 0 1-16.071111 15.928889z" fill="#FFFFFF" p-id="7395"></path></svg>