<?xml version="1.0" standalone="no"?><!DOCTYPE svg PUBLIC "-//W3C//DTD SVG 1.1//EN" "http://www.w3.org/Graphics/SVG/1.1/DTD/svg11.dtd"><svg t="1560320306412" class="icon" style="" viewBox="0 0 1024 1024" version="1.1" xmlns="http://www.w3.org/2000/svg" p-id="8801" xmlns:xlink="http://www.w3.org/1999/xlink" width="32" height="32"><defs><style type="text/css"></style></defs><path d="M512 32C246.4 32 32 246.4 32 512s214.4 480 480 480 480-214.4 480-480S777.6 32 512 32z" fill="#F6C607" p-id="8802"></path><path d="M268.8 793.6l19.2 32 44.8 22.4 16-118.4-80 64z m86.4-67.2l-19.2 121.6 35.2 16 25.6-163.2-41.6 25.6z" fill="#F6A107" p-id="8803"></path><path d="M393.6 700.8l-25.6 163.2 35.2 16 32-204.8z" fill="#F4A207" p-id="8804"></path><path d="M435.2 675.2l-32 204.8 35.2 19.2 35.2-252.8z" fill="#F3A207" p-id="8805"></path><path d="M473.6 646.4l-35.2 252.8 32 16 44.8-294.4z" fill="#F2A307" p-id="8806"></path><path d="M515.2 620.8l-44.8 294.4 35.2 16 51.2-339.2z" fill="#F1A307" p-id="8807"></path><path d="M556.8 592l-51.2 339.2 32 16 57.6-380.8z" fill="#F0A407" p-id="8808"></path><path d="M595.2 566.4l-57.6 380.8 35.2 19.2 64-428.8z" fill="#EFA407" p-id="8809"></path><path d="M636.8 537.6l-64 428.8 35.2 16L678.4 512z" fill="#EEA507" p-id="8810"></path><path d="M678.4 512L608 982.4c12.8-3.2 25.6-6.4 35.2-9.6l73.6-489.6-38.4 28.8z" fill="#EDA607" p-id="8811"></path><path d="M716.8 483.2l-73.6 489.6c12.8-3.2 25.6-9.6 38.4-12.8l73.6-505.6-38.4 28.8z" fill="#ECA607" p-id="8812"></path><path d="M758.4 457.6L681.6 960c12.8-6.4 25.6-9.6 38.4-16L800 428.8l-41.6 28.8z" fill="#ECA707" p-id="8813"></path><path d="M800 428.8l-76.8 515.2c12.8-6.4 25.6-12.8 38.4-22.4l76.8-521.6-38.4 28.8z" fill="#EBA707" p-id="8814"></path><path d="M838.4 403.2l-76.8 521.6c12.8-9.6 28.8-19.2 41.6-28.8l76.8-518.4-41.6 25.6z" fill="#E9A807" p-id="8815"></path><path d="M880 374.4L803.2 896c16-9.6 28.8-22.4 41.6-35.2l70.4-467.2-35.2-19.2z" fill="#E8A907" p-id="8816"></path><path d="M912 390.4l-70.4 467.2c16-16 28.8-32 44.8-48l60.8-403.2-35.2-16z" fill="#E6A906" p-id="8817"></path><path d="M947.2 409.6l-60.8 403.2c19.2-22.4 32-44.8 48-70.4l48-313.6-35.2-19.2z" fill="#E5AA06" p-id="8818"></path><path d="M982.4 425.6l-48 313.6C972.8 672 992 595.2 992 512c0-28.8-3.2-54.4-6.4-83.2l-3.2-3.2z" fill="#E4AA06" p-id="8819"></path><path d="M144 374.4l3.2-6.4c6.4-19.2 22.4-28.8 41.6-32 19.2 0 35.2 9.6 44.8 25.6 9.6 16 6.4 35.2-6.4 51.2-3.2 0-6.4 3.2-6.4 3.2 35.2 22.4 67.2 41.6 102.4 64 12.8 6.4 25.6 16 38.4 22.4 6.4 3.2 12.8 3.2 16-3.2 38.4-70.4 76.8-144 118.4-214.4-16-9.6-28.8-22.4-28.8-41.6 0-12.8 3.2-25.6 12.8-35.2 19.2-19.2 51.2-16 67.2 3.2 19.2 22.4 12.8 51.2-19.2 73.6 9.6 19.2 19.2 38.4 32 54.4 28.8 51.2 57.6 102.4 83.2 153.6 6.4 12.8 9.6 12.8 22.4 6.4 44.8-25.6 86.4-54.4 131.2-80 3.2 0 3.2-3.2 6.4-3.2-9.6-9.6-16-19.2-16-32 0-22.4 16-44.8 38.4-48 22.4-3.2 44.8 9.6 51.2 32 0 3.2 0 3.2 3.2 6.4v16c-6.4 22.4-22.4 38.4-48 38.4 0 3.2-3.2 6.4-3.2 9.6-25.6 86.4-51.2 176-76.8 262.4-3.2 12.8-6.4 16-19.2 16H291.2c-12.8 0-16-3.2-19.2-16-22.4-70.4-41.6-144-60.8-214.4L192 428.8c-19.2 0-35.2-6.4-44.8-25.6-3.2-3.2-3.2-9.6-6.4-12.8 3.2-6.4 3.2-12.8 3.2-16m368 384h208c19.2 0 32 12.8 35.2 32 3.2 19.2-9.6 35.2-28.8 38.4H304c-16 0-28.8-9.6-32-22.4-3.2-12.8 0-28.8 12.8-38.4 6.4-3.2 16-6.4 22.4-6.4 67.2-3.2 137.6-3.2 204.8-3.2" fill="#FFFFFF" p-id="8820"></path></svg>