<?xml version="1.0" standalone="no"?><!DOCTYPE svg PUBLIC "-//W3C//DTD SVG 1.1//EN" "http://www.w3.org/Graphics/SVG/1.1/DTD/svg11.dtd"><svg t="1562385753333" class="icon" viewBox="0 0 1024 1024" version="1.1" xmlns="http://www.w3.org/2000/svg" p-id="3922" xmlns:xlink="http://www.w3.org/1999/xlink" width="128" height="128"><defs><style type="text/css"></style></defs><path d="M512 512m-448.99 0a448.99 448.99 0 1 0 897.98 0 448.99 448.99 0 1 0-897.98 0Z" fill="#F4E8EC" p-id="3923"></path><path d="M648 259.69c-2.1 14.31-13.41 23.45-21 28.48-7 4.67-22.71 11.73-40.1 24.85-3.91 3-7.91 6.22-11.91 9.83a126.17 126.17 0 0 0-38.48 63.62c-5.93 24.4-2.86 43.85 2.65 58.17a251.64 251.64 0 0 0 10.87 24.44c5 9.22 16.45 26.2 20.95 37.7q1.83 4.68 3.48 9.71a257.547 257.547 0 0 1 3.32 11c0.42 1.52 0.83 3 1.23 4.61 5.47 21.32 9.09 46.28 10.83 74.22q0.35 5.56 0.59 11.3 0.63 14.45 0.64 29.87a532.63 532.63 0 0 1-4.51 70.51c-0.31 2.31-0.63 4.59-1 6.87C572.83 810.71 539.44 872 500.25 872h-0.35c-23.22 0-44.4-21.51-60.47-56.92-0.33-0.71-0.65-1.44-1-2.17-0.08-0.2-0.17-0.4-0.26-0.6-0.3-0.69-0.61-1.39-0.91-2.09-9.28-21.79-16.7-48.38-21.6-78.16v-0.17c-0.15-0.89-0.29-1.8-0.43-2.7v-0.17a520.35 520.35 0 0 1-6.1-72.25l-0.06-4.59v-4.65c0-58 6.71-106.38 20.1-140.72 4.5-11.5 15.92-28.48 20.95-37.7a251.83 251.83 0 0 0 10.86-24.44c5.52-14.32 8.59-33.77 2.66-58.17-6-24.62-19.68-46.65-38.48-63.62a178.32 178.32 0 0 0-12.23-10.07c-17.26-13-32.82-20-39.79-24.61-7.53-5-18.85-14.17-20.94-28.48-2.86-19.51 31.83-41.88 49.42-7.53 6.75 13.18 23 25 41.65 33.69 18.73 8.7 39.91 14.32 56.63 15.12h0.35c16.65-0.77 37.78-6.35 56.45-15 18.79-8.72 35.09-20.57 41.87-33.8 17.61-34.39 52.29-12.02 49.43 7.49z" fill="#EA1111" p-id="3924"></path><path d="M372.14 236.24m-86.69 0a86.69 86.69 0 1 0 173.38 0 86.69 86.69 0 1 0-173.38 0Z" fill="#23204D" p-id="3925"></path><path d="M628.02 236.66m-86.69 0a86.69 86.69 0 1 0 173.38 0 86.69 86.69 0 1 0-173.38 0Z" fill="#23204D" p-id="3926"></path><path d="M500.08 787.75a1.46 1.46 0 0 0 0-2.91 1.46 1.46 0 0 0 0 2.91zM500.08 754.33a1.46 1.46 0 0 0 0-2.91 1.46 1.46 0 0 0 0 2.91zM500.08 777.58a1.46 1.46 0 0 0 0-2.91 1.46 1.46 0 0 0 0 2.91z" fill="#EA1111" p-id="3927"></path><path d="M500.08 779a1.46 1.46 0 0 0 0-2.91 1.46 1.46 0 0 0 0 2.91z" fill="#EA1111" p-id="3928"></path><path d="M579.08 532.11A265.63 265.63 0 0 1 564.64 562c-9.34 16.39-21.14 31.7-36 43.15l-0.19 0.15c-2.25 1.73-4.58 3.38-7 4.93s-4.81 3-7.32 4.27a90.7 90.7 0 0 1-8.58 4 152.33 152.33 0 0 1-20.23 6.24h-0.15c-2.53 0.63-5.09 1.23-7.65 1.83l-7.8 1.83c-20.39 4.87-40.42 10.81-53.06 28.32l-0.05-4.59c9-10.7 21.64-17.29 34.88-21.69 6-2 12.14-3.54 18.3-5l7.82-1.82c2.57-0.6 5.14-1.21 7.69-1.85h0.15c4.88-1.23 9.72-2.6 14.47-4.26a95.71 95.71 0 0 0 13.9-6.18c2.48-1.33 4.89-2.78 7.24-4.33s4.66-3.21 6.88-5l0.21-0.16a109.06 109.06 0 0 0 10.27-9.22c17.93-18.26 29.89-41.49 39.4-65.16 0.45 1.54 0.86 3.09 1.26 4.65zM587.71 617.63a136.74 136.74 0 0 1-11.51 30.26A155.92 155.92 0 0 1 513.35 712a136.05 136.05 0 0 1-43.48 15.05c-17.84 2.9-36.14 3.6-54.21 4.77-0.15-0.89-0.29-1.8-0.43-2.7v-0.17c20.2-1.28 40.93-1.75 60.7-6 55.32-11.77 102.19-60.8 111.22-116.71 0.2 3.76 0.41 7.57 0.56 11.39zM574.26 718c-0.31 2.31-0.63 4.59-1 6.87-11.56 25.51-31.61 46.28-55.19 61.23a162.6 162.6 0 0 1-43.88 19c-7.9 2.18-15.9 3.93-23.93 5.51-3.94 0.78-7.88 1.51-11.82 2.24-0.08-0.2-0.17-0.4-0.26-0.6-0.3-0.69-0.61-1.39-0.91-2.09 0.51-0.11 1-0.22 1.5-0.31 3.57-0.67 7.15-1.34 10.71-2 7.51-1.47 15-3.09 22.37-5.07a161.06 161.06 0 0 0 43.46-18.37c25-15.54 46.35-37.84 57.34-65.46a1.53 1.53 0 0 1 1.61-0.95z" fill="#861C2F" p-id="3929"></path><path d="M477.47 632.42a22.61 68.68 0 1 0 45.22 0 22.61 68.68 0 1 0-45.22 0Z" fill="#EA1111" p-id="3930"></path><path d="M528.65 605.12c-0.15-1.09-0.3-2.17-0.47-3.24-3.92-25.29-13.06-45.89-28.1-45.89-19.55 0-29.13 34.8-30.26 69.48 0 1-0.05 2-0.07 2.95v4c0 36.81 9.51 76.43 30.37 76.43s30.36-39.62 30.36-76.43a205.22 205.22 0 0 0-1.83-27.3z m-28.56 88.23c-3.58-0.52-14.88-19.84-14.88-60.93 0-2.66 0.05-5.22 0.14-7.7 0-1 0.08-2 0.13-3 1.72-33.72 11.35-49.72 14.58-50.24 2.91 0.42 10.86 13.18 13.79 39.84 0.11 1 0.21 2.08 0.31 3.15 0.5 5.44 0.78 11.42 0.78 17.95 0 41.09-11.29 60.41-14.85 60.93z" fill="#FFF6F3" p-id="3931"></path></svg>