<?xml version="1.0" standalone="no"?><!DOCTYPE svg PUBLIC "-//W3C//DTD SVG 1.1//EN" "http://www.w3.org/Graphics/SVG/1.1/DTD/svg11.dtd"><svg t="1560136131240" class="icon" style="" viewBox="0 0 1024 1024" version="1.1" xmlns="http://www.w3.org/2000/svg" p-id="5746" xmlns:xlink="http://www.w3.org/1999/xlink" width="32" height="32"><defs><style type="text/css"></style></defs><path d="M508.9 512m-500.8 0a500.8 500.8 0 1 0 1001.6 0 500.8 500.8 0 1 0-1001.6 0Z" fill="#B9DAD2" p-id="5747"></path><path d="M1009.7 512c0 276.6-224.2 500.8-500.8 500.8S8 788.6 8 512c149.2-0.3 759.2-2.1 1001.7 0z" fill="#A9D0C5" p-id="5748"></path><path d="M415.6 445.8l3.8-290.6s0.5-41.5 53.8-40.4c53.2 1.1 94.8 1.6 94.8 1.6s50.5 0.3 42.9 75.4c-7.6 75.1-6.5 289.8-6.5 289.8l-188.8-35.8z" fill="#45607A" p-id="5749"></path><path d="M711.1 872.2L316.5 874l-2-444.1 394.6-1.8z" fill="#FFFFFF" p-id="5750"></path><path d="M316 874.5v-0.5l-2-444.6h0.5l395.1-1.8v0.5l2 444.6h-0.5L316 874.5z m-1-444.1l2 443.1 393.6-1.8-2-443.1-393.6 1.8z" fill="#FFFFFF" p-id="5751"></path><path d="M316.1 430.7s-23.7 433.5 173.8 415.2c197.5-18.3 203.8-204.4 220.8-417l-394.6 1.8z" fill="#E45F48" p-id="5752"></path><path d="M478 847c-29.5 0-55.5-10.6-77.3-31.7-23-22.2-41.8-56.2-55.9-101.2-11.2-35.9-19.5-78.9-24.5-127.6-8.6-83-4.8-155.1-4.7-155.8v-0.5h0.5l395.1-1.8v0.5c-0.7 8.6-1.4 17.2-2 25.7-7.8 100-15.2 194.4-44.3 264.9-32.4 78.5-88 118.8-175 126.9-4 0.4-8 0.6-11.9 0.6zM316.5 431.2c-0.3 6.4-3.4 75.8 4.7 155.2 7.9 76.5 28.2 178.2 80.1 228.2 24.5 23.6 54.3 34 88.4 30.8 86.6-8 141.9-48.1 174.1-126.3 29-70.3 36.4-164.7 44.2-264.6 0.7-8.3 1.3-16.7 2-25.2l-393.5 1.9z" fill="#040000" p-id="5753"></path><path d="M588.3 680.3h-151c-11.6 0-20.9-9.4-20.9-20.9v-61.3c0-11.6 9.4-20.9 20.9-20.9h151c11.6 0 20.9 9.4 20.9 20.9v61.3c0 11.5-9.3 20.9-20.9 20.9z" fill="#F5B357" p-id="5754"></path><path d="M588.3 681.3h-151c-12.1 0-21.9-9.8-21.9-21.9v-61.3c0-12.1 9.8-21.9 21.9-21.9h151c12.1 0 21.9 9.8 21.9 21.9v61.3c0 12.1-9.8 21.9-21.9 21.9z m-151-103.2c-11 0-19.9 8.9-19.9 19.9v61.3c0 11 8.9 19.9 19.9 19.9h151c11 0 19.9-8.9 19.9-19.9V598c0-11-8.9-19.9-19.9-19.9h-151z" fill="#040000" p-id="5755"></path></svg>