<?xml version="1.0" standalone="no"?><!DOCTYPE svg PUBLIC "-//W3C//DTD SVG 1.1//EN" "http://www.w3.org/Graphics/SVG/1.1/DTD/svg11.dtd"><svg t="1562382828441" class="icon" viewBox="0 0 1024 1024" version="1.1" xmlns="http://www.w3.org/2000/svg" p-id="3936" xmlns:xlink="http://www.w3.org/1999/xlink" width="128" height="128"><defs><style type="text/css"></style></defs><path d="M510.976 1007.616C236.9536 1007.616 14.9504 785.6128 14.9504 511.7952 14.9504 237.7728 236.9536 15.7696 510.976 15.7696c273.8176 0 496.0256 222.0032 496.0256 496.0256C1006.7968 785.6128 784.7936 1007.616 510.976 1007.616z m104.6528-264.3968c124.3136 0 225.0752-110.7968 225.0752-247.6032 0-136.8064-100.7616-247.6032-225.0752-247.6032h-150.1184v495.2064h150.1184z m-405.2992 0c99.5328 0 180.224-78.2336 180.224-174.6944V248.0128h-60.0064v320.3072c0 64.3072-53.6576 116.5312-120.0128 116.5312H180.224v58.1632h30.1056v0.2048z m0 0" fill="#EE0F23" p-id="3937"></path><path d="M615.6288 306.176h-90.112v378.6752h90.112c91.136 0 165.0688-84.7872 165.0688-189.2352s-73.728-189.44-165.0688-189.44z m0 0" fill="#EE0F23" p-id="3938"></path></svg>