<?xml version="1.0" standalone="no"?><!DOCTYPE svg PUBLIC "-//W3C//DTD SVG 1.1//EN" "http://www.w3.org/Graphics/SVG/1.1/DTD/svg11.dtd"><svg t="1562391477283" class="icon" viewBox="0 0 1464 1024" version="1.1" xmlns="http://www.w3.org/2000/svg" p-id="13805" xmlns:xlink="http://www.w3.org/1999/xlink" width="183" height="128"><defs><style type="text/css"></style></defs><path d="M251.944082 699.526561c-41.99068 0-90.661696-11.452004-120.246039-20.041006-10.49767-2.863001-102.1137-29.584343-121.200373-55.351352-18.132339-24.812675-7.634669-62.986021-3.817334-74.438024 3.817335-11.452004 15.269338-39.127679 34.356011-44.853681 10.49767-2.863001 30.538677-1.908667 72.529357 0 43.899348 1.908667 99.250699 4.771668 132.652376 0 30.538677-4.771668 119.291705-61.077353 190.866729-106.885368 73.483691-46.762349 119.291705-75.392358 142.195713-82.072694 33.401678-9.543336 64.894688-4.771668 86.844362 13.360671 20.041007 15.269338 29.584343 40.082013 28.630009 68.712023-2.863001 65.849021-63.940354 80.164026-100.205033 87.798695-23.858341 5.726002-83.027027 53.442684-134.561044 95.433364-65.849021 53.442684-127.880708 103.068034-167.962721 114.520037-11.452004 1.908667-25.767008 3.817335-40.082013 3.817335z" fill="#FEE140" p-id="13806"></path><path d="M647.992544 603.138863c-60.12302 0-108.794035-76.346692-125.972041-193.72973l34.356011-4.771668c13.360671 95.433364 51.534017 164.145387 91.61603 164.145387 45.808015 0 96.387698-98.296365 96.387698-239.537745 0-66.803355-11.452004-128.835042-31.49301-174.643057-18.132339-41.036347-41.99068-64.894688-64.894688-64.894687-41.99068 0-82.072693 77.301025-93.524697 180.369058l-34.356011-3.817334C534.426841 140.287046 585.960857 55.351351 647.992544 55.351351c37.219012 0 71.575023 30.538677 96.387698 85.890028 22.904007 50.579683 35.310345 117.383038 35.310345 188.958062S767.28425 466.669152 744.380242 518.203169c-23.858341 54.397018-58.214352 84.935694-96.387698 84.935694z" fill="#52525F" p-id="13807"></path><path d="M832.178938 656.581547c-59.168686 0-118.337372-11.452004-172.73439-33.401677-24.812675-10.49767-47.716682-24.812675-65.849021-43.899348-5.726002-5.726002-11.452004-11.452004-16.223672-18.132339-13.360671-17.178006-23.858341-36.264678-30.538677-56.305685-1.908667-5.726002-3.817335-12.406337-5.726002-19.086673l32.447344-10.49767c8.589003 27.675676 20.041007 50.579683 32.447344 65.849021 3.817335 3.817335 6.680336 8.589003 10.49767 12.406338 10.49767 10.49767 21.949674 16.223672 32.447344 16.223671 22.904007 0 46.762349-23.858341 64.894688-64.894687 20.99534-46.762349 31.49301-108.794035 31.49301-174.643057s-11.452004-128.835042-31.49301-174.643057C695.709226 114.520037 671.850885 90.661696 648.946878 90.661696c-27.675676 0-57.260019 36.264678-76.346692 94.479031l-32.447344-10.49767c1.908667-5.726002 3.817335-12.406337 5.726002-18.132339 20.041007-59.168686 64.894688-104.976701 124.063374-126.926375C721.476235 9.543336 776.827586 0 832.178938 0c63.940354 0 126.926375 13.360671 185.140726 39.127679 18.132339 7.634669 33.401678 20.99534 42.945014 39.12768 41.99068 72.529357 63.940354 160.328052 63.940355 252.898415 0 89.707363-20.99534 175.59739-60.12302 247.172414-9.543336 17.178006-24.812675 31.49301-42.945014 39.12768-60.12302 24.812675-124.063374 39.127679-188.958061 39.127679z m-149.830383-62.031687c47.716682 18.132339 98.296365 26.721342 149.830383 26.721342 60.12302 0 119.291705-12.406337 174.643056-37.219012 11.452004-4.771668 20.99534-14.315005 26.721342-24.812675 37.219012-66.803355 56.305685-146.013048 56.305685-230.948741 0-86.844362-20.99534-167.962721-59.168685-235.720411-6.680336-10.49767-15.269338-19.086673-26.721343-24.812674-54.397018-23.858341-112.61137-36.264678-171.780055-36.264679-51.534017 0-102.1137 9.543336-149.830383 27.675676-0.954334 0-2.863001 0.954334-3.817334 0.954334 25.767008 11.452004 48.671016 39.127679 66.803355 79.209692 22.904007 50.579683 35.310345 117.383038 35.310345 188.958062 0 70.62069-12.406337 138.378378-35.310345 188.958061-17.178006 38.173346-39.127679 64.894688-62.986021 77.301025z" fill="#52525F" p-id="13808"></path><path d="M1121.342032 582.143523c-8.589003 0-17.178006-3.817335-21.949674-11.452004-7.634669-9.543336-8.589003-22.904007-0.954334-33.401677 34.356011-53.442684 54.397018-121.200373 54.397018-192.775397 0-70.62069-19.086673-139.332712-54.397018-192.775396-6.680336-10.49767-6.680336-23.858341 0.954334-33.401677s20.041007-13.360671 32.447344-9.543337l91.61603 32.447344c41.036347 14.315005 73.483691 45.808015 87.798695 85.890028 13.360671 36.264678 20.041007 76.346692 20.041006 116.428705s-6.680336 80.164026-20.041006 116.428704c-14.315005 40.082013-46.762349 71.575023-87.798695 85.890028l-91.61603 32.447344c-3.817335 2.863001-7.634669 3.817335-10.49767 3.817335z m13.360671-434.221808c33.401678 56.305685 50.579683 125.972041 50.579683 197.547064s-18.132339 141.241379-50.579683 197.547064l76.346691-26.721342c31.49301-11.452004 56.305685-35.310345 66.803355-65.849021 12.406337-32.447344 18.132339-67.757689 18.13234-104.976701s-5.726002-72.529357-18.13234-104.976701c-11.452004-30.538677-35.310345-54.397018-66.803355-65.849021l-76.346691-26.721342zM251.944082 613.636533c-41.99068 0-90.661696-11.452004-120.246039-20.041006-10.49767-2.863001-102.1137-29.584343-121.200373-55.351352-18.132339-24.812675-7.634669-62.986021-3.817334-74.438024 3.817335-11.452004 15.269338-39.127679 34.356011-44.853681 10.49767-2.863001 30.538677-1.908667 72.529357 0 43.899348 1.908667 99.250699 4.771668 132.652376 0 30.538677-4.771668 119.291705-61.077353 190.866729-106.885368 73.483691-46.762349 119.291705-75.392358 142.195713-82.072694 33.401678-9.543336 64.894688-4.771668 86.844362 13.360671 20.041007 15.269338 29.584343 40.082013 28.630009 68.712023-2.863001 65.849021-63.940354 80.164026-100.205033 87.798695-23.858341 5.726002-83.027027 53.442684-134.561044 95.433364-65.849021 53.442684-127.880708 103.068034-167.962721 114.520038-11.452004 1.908667-25.767008 3.817335-40.082013 3.817334zM52.48835 452.354147c-3.817335 2.863001-12.406337 17.178006-16.223672 36.264679-2.863001 16.223672-0.954334 25.767008 1.908668 29.584343 14.315005 17.178006 177.506058 76.346692 245.263746 57.260018 33.401678-9.543336 98.296365-62.031687 155.556384-108.794035 62.986021-50.579683 116.428705-94.479031 148.876049-102.1137 47.716682-10.49767 71.575023-21.949674 73.48369-55.351351 0.954334-18.132339-4.771668-31.49301-15.269338-40.082013-13.360671-10.49767-34.356011-13.360671-56.305685-6.680336-19.086673 5.726002-77.301025 41.99068-133.60671 78.255359-97.342032 62.031687-168.917055 106.885368-204.2274 111.657036-37.219012 5.726002-93.524697 2.863001-139.332712 0.954334-23.858341-0.954334-52.48835-2.863001-60.12302-0.954334z" fill="#52525F" p-id="13809"></path><path d="M1295.985089 451.399814v-34.356012c18.132339 0 67.757689-10.49767 87.798695-17.178005 13.360671-3.817335 48.671016-34.356011 43.899347-69.666356-0.954334-9.543336-3.817335-12.406337-3.817334-13.360671-1.908667 0-8.589003 0.954334-23.858341 14.315004-25.767008 20.99534-56.305685 23.858341-82.072694 23.858342v-34.356012c24.812675 0 43.899348-2.863001 61.077354-16.223672 15.269338-12.406337 37.219012-27.675676 58.214352-19.086672 14.315005 5.726002 22.904007 19.086673 25.767008 40.082013 8.589003 53.442684-39.127679 98.296365-66.803355 106.885368-21.949674 6.680336-76.346692 19.086673-100.205032 19.086673z" fill="#52525F" p-id="13810"></path></svg>