<?xml version="1.0" standalone="no"?><!DOCTYPE svg PUBLIC "-//W3C//DTD SVG 1.1//EN" "http://www.w3.org/Graphics/SVG/1.1/DTD/svg11.dtd"><svg t="1562322113760" class="icon" viewBox="0 0 1024 1024" version="1.1" xmlns="http://www.w3.org/2000/svg" p-id="8254" xmlns:xlink="http://www.w3.org/1999/xlink" width="128" height="128"><defs><style type="text/css"></style></defs><path d="M512 1024c283.306667 0 512-228.693333 512-512S795.306667 0 512 0 0 228.693333 0 512s228.693333 512 512 512z" fill="#9A08FF" p-id="8255"></path><path d="M673.28 271.803733c-47.786667-30.72-98.986667-47.786667-157.013333-47.786666-61.44 0-116.053333 17.066667-160.426667 47.786666 20.48 10.24 37.546667 27.306667 47.786667 47.786667 34.133333-20.48 71.68-30.72 112.64-30.72 37.546667 0 75.093333 10.24 109.226666 27.306667 10.24-17.066667 27.306667-34.133333 47.786667-44.373334m-290.133333 109.226667c0-54.613333-44.373333-95.573333-95.573334-95.573333-51.2 0-95.573333 44.373333-95.573333 95.573333 0 54.613333 44.373333 95.573333 95.573333 95.573333s95.573333-40.96 95.573334-95.573333m133.12 286.72c-54.613333 0-95.573333 44.373333-95.573334 95.573333 0 54.613333 44.373333 95.573333 95.573334 95.573334s95.573333-44.373333 95.573333-95.573334c0-54.613333-44.373333-95.573333-95.573333-95.573333m119.466666-286.72c0 54.613333 44.373333 95.573333 95.573334 95.573333 54.613333 0 95.573333-44.373333 95.573333-95.573333s-44.373333-95.573333-95.573333-95.573333c-54.613333 0-95.573333 44.373333-95.573334 95.573333m102.4 126.293333v6.826667c0 81.92-44.373333 150.186667-105.813333 191.146667 10.24 17.066667 13.653333 37.546667 13.653333 58.026666v10.24c95.573333-47.786667 157.013333-146.773333 157.013334-259.413333v-23.893333c-17.066667 10.24-40.96 17.066667-64.853334 17.066666m-447.146666 6.826667v-6.826667h-3.413334c-20.48 0-44.373333-3.413333-61.44-13.653333v20.48c0 112.64 64.853333 211.626667 157.013334 259.413333v-10.24c0-20.48 6.826667-40.96 13.653333-58.026666-64.853333-37.546667-105.813333-109.226667-105.813333-191.146667" fill="#FFFFFF" p-id="8256"></path></svg>