<?xml version="1.0" standalone="no"?><!DOCTYPE svg PUBLIC "-//W3C//DTD SVG 1.1//EN" "http://www.w3.org/Graphics/SVG/1.1/DTD/svg11.dtd"><svg t="1562382801006" class="icon" viewBox="0 0 1024 1024" version="1.1" xmlns="http://www.w3.org/2000/svg" p-id="2110" xmlns:xlink="http://www.w3.org/1999/xlink" width="128" height="128"><defs><style type="text/css"></style></defs><path d="M680.228571 490.057143m-36.571428 0a36.571429 36.571429 0 1 0 73.142857 0 36.571429 36.571429 0 1 0-73.142857 0Z" fill="#67BAFF" p-id="2111"></path><path d="M358.4 490.057143m-36.571429 0a36.571429 36.571429 0 1 0 73.142858 0 36.571429 36.571429 0 1 0-73.142858 0Z" fill="#67BAFF" p-id="2112"></path><path d="M519.314286 490.057143m-36.571429 0a36.571429 36.571429 0 1 0 73.142857 0 36.571429 36.571429 0 1 0-73.142857 0Z" fill="#67BAFF" p-id="2113"></path><path d="M512 0C229.668571 0 0 229.668571 0 512s229.668571 512 512 512 512-229.668571 512-512S794.331429 0 512 0z m277.942857 570.514286c0 49.737143-38.034286 87.771429-87.771428 87.771428H434.468571l-121.417142 58.514286c-1.462857 1.462857-4.388571 1.462857-7.314286 1.462857-8.777143-1.462857-14.628571-8.777143-13.165714-16.091428l5.851428-43.885715H292.571429c-32.182857 0-58.514286-26.331429-58.514286-58.514285V394.971429c0-49.737143 38.034286-87.771429 87.771428-87.771429h380.342858c49.737143 0 87.771429 38.034286 87.771428 87.771429v175.542857z" fill="#67BAFF" p-id="2114"></path></svg>