<?xml version="1.0" standalone="no"?><!DOCTYPE svg PUBLIC "-//W3C//DTD SVG 1.1//EN" "http://www.w3.org/Graphics/SVG/1.1/DTD/svg11.dtd"><svg t="1560136989561" class="icon" style="" viewBox="0 0 1024 1024" version="1.1" xmlns="http://www.w3.org/2000/svg" p-id="3537" xmlns:xlink="http://www.w3.org/1999/xlink" width="32" height="32"><defs><style type="text/css"></style></defs><path d="M511.974755 569.584537m-454.415463 0a454.415463 454.415463 0 1 0 908.830925 0 454.415463 454.415463 0 1 0-908.830925 0Z" fill="#9DD3F2" p-id="3538"></path><path d="M962.048025 245.030916a558.224151 558.224151 0 0 0-226.904787-182.927469l18.732015-46.804793a608.765248 608.765248 0 0 1 246.949558 197.418273zM321.372713 48.117548a557.668754 557.668754 0 0 0-259.471229 196.913368l-38.776786-32.313989a608.209852 608.209852 0 0 1 282.292984-212.060549z" fill="#48A9E5" p-id="3539"></path><path d="M739.182486 620.075144h-252.453035a25.245303 25.245303 0 0 1-25.245303-25.245303v-252.453035a25.245303 25.245303 0 0 1 50.490607 0v227.207731h227.207731a25.245303 25.245303 0 0 1 0 50.490607z" fill="#FFFFFF" p-id="3540"></path></svg>