<?xml version="1.0" standalone="no"?><!DOCTYPE svg PUBLIC "-//W3C//DTD SVG 1.1//EN" "http://www.w3.org/Graphics/SVG/1.1/DTD/svg11.dtd"><svg t="1563932222593" class="icon" viewBox="0 0 1024 1024" version="1.1" xmlns="http://www.w3.org/2000/svg" p-id="3697" xmlns:xlink="http://www.w3.org/1999/xlink" width="128" height="128"><defs><style type="text/css"></style></defs><path d="M889.6 492.8l-89.6-115.2c-12.8-12.8-32-12.8-44.8-6.4-12.8 12.8-12.8 32-6.4 44.8l51.2 70.4h-345.6c-19.2 0-32 12.8-32 32s12.8 32 32 32h345.6l-51.2 70.4c-12.8 12.8-6.4 32 6.4 44.8 6.4 6.4 12.8 6.4 19.2 6.4 6.4 0 19.2-6.4 25.6-12.8l89.6-115.2c6.4-6.4 6.4-12.8 6.4-19.2 0-19.2 0-25.6-6.4-32z" fill="#1E91D0" p-id="3698"></path><path d="M742.4 729.6c-32 32-64 57.6-102.4 70.4-38.4 19.2-83.2 25.6-128 25.6-83.2 0-166.4-32-224-96-57.6-57.6-96-140.8-96-224s32-166.4 96-224c57.6-57.6 140.8-96 224-96 83.2 0 166.4 32 224 96 12.8 12.8 32 12.8 44.8 0 12.8-12.8 12.8-32 0-44.8-32-32-76.8-64-121.6-83.2-44.8-19.2-96-32-147.2-32s-102.4 12.8-147.2 32c-44.8 19.2-83.2 44.8-121.6 83.2-32 32-64 76.8-83.2 121.6-19.2 44.8-32 96-32 147.2s12.8 102.4 32 147.2c19.2 44.8 44.8 83.2 83.2 121.6 32 32 76.8 64 121.6 83.2 44.8 19.2 96 32 147.2 32 51.2 0 102.4-12.8 153.6-32 44.8-19.2 89.6-51.2 121.6-83.2 12.8-12.8 12.8-32 0-44.8-19.2-12.8-38.4-12.8-44.8 0z" fill="#1E91D0" p-id="3699"></path></svg>