<?xml version="1.0" standalone="no"?><!DOCTYPE svg PUBLIC "-//W3C//DTD SVG 1.1//EN" "http://www.w3.org/Graphics/SVG/1.1/DTD/svg11.dtd"><svg t="1562391548487" class="icon" viewBox="0 0 1024 1024" version="1.1" xmlns="http://www.w3.org/2000/svg" p-id="16955" xmlns:xlink="http://www.w3.org/1999/xlink" width="128" height="128"><defs><style type="text/css"></style></defs><path d="M519.4 977.1c-255.9 0-464.2-208.2-464.2-464.2S263.5 48.7 519.4 48.7 983.6 257 983.6 512.9 775.3 977.1 519.4 977.1z m0-907.1C275.2 70 76.5 268.7 76.5 512.9s198.7 442.9 442.9 442.9 442.9-198.7 442.9-442.9S763.6 70 519.4 70z" fill="#2EA7E0" p-id="16956"></path><path d="M536.9 823c-98.3 0-213.8-38.9-345.3-116.5-3.1-1.8-5.4-4.7-6.4-8.1l-50.7-168.9c-1.1-3.8-0.6-7.9 1.4-11.3 2-3.4 5.4-5.8 9.2-6.6 4.9-1.1 486.5-106.5 625.2-277.9 2.8-3.5 7.1-5.6 11.7-5.2 4.5 0.2 8.6 2.5 11.1 6.3 16.5 24.6 97.2 148.5 86.2 195.9-1.8 22.5-25.1 267.1-199.5 358.8-42.6 22.4-90.3 33.5-142.9 33.5zM210.8 685c190.7 111.5 344.1 138.2 455.8 79.4 165.2-86.8 184.4-334.5 184.6-337 0.1-1 0.2-2 0.5-2.9 6.5-22.6-35.4-101.2-71.9-158.4C635.7 421.2 248.6 517 166.1 536l44.7 149z" fill="#E71F19" p-id="16957"></path><path d="M633.9 800.7c-2 0-4-0.9-5.4-2.5C438 574.7 211.8 695.3 202.2 700.6c-3.4 2-7.7 0.6-9.6-2.8-1.9-3.4-0.7-7.7 2.8-9.6 2.4-1.3 235.8-126.3 431.7 87 2.5-71.3 26.4-324.2 237.2-353.8 3.7-0.5 7.4 2.1 8 6 0.5 3.9-2.2 7.5-6 8-232 32.5-225.4 354.7-225.3 358 0.1 3-1.7 5.7-4.5 6.8-0.9 0.4-1.8 0.5-2.6 0.5zM163.6 580.6c-1.7 0-3.2-1.2-3.5-2.9-0.3-1.9 0.9-3.8 2.8-4.1 0 0 4.9-0.9 14-2.8 2-0.3 3.8 0.8 4.2 2.8 0.4 1.9-0.8 3.8-2.8 4.2-9.1 1.9-14.1 2.8-14.1 2.8-0.2-0.1-0.4 0-0.6 0z m41.8-8.9c-1.6 0-3.1-1.1-3.5-2.8-0.4-1.9 0.8-3.8 2.7-4.2l13.8-3.2c2-0.5 3.8 0.7 4.2 2.6 0.4 1.9-0.7 3.8-2.6 4.2l-13.9 3.2c-0.2 0.2-0.4 0.2-0.7 0.2z m41.5-9.8c-1.6 0-3-1.1-3.4-2.7-0.5-1.9 0.7-3.8 2.6-4.3l13.7-3.5c1.9-0.5 3.8 0.7 4.3 2.6 0.5 1.9-0.7 3.8-2.6 4.3l-13.8 3.5c-0.3 0.1-0.5 0.1-0.8 0.1z m41.2-10.7c-1.6 0-3-1-3.4-2.6-0.5-1.9 0.6-3.8 2.5-4.3l13.7-3.7c2-0.5 3.8 0.6 4.4 2.5 0.5 1.9-0.6 3.8-2.5 4.4l-13.7 3.7h-1z m41-11.4c-1.5 0-2.9-1-3.4-2.6-0.5-1.9 0.5-3.8 2.4-4.4l13.6-4c1.9-0.6 3.8 0.5 4.4 2.4 0.6 1.9-0.5 3.8-2.4 4.4l-13.6 4c-0.3 0.1-0.7 0.2-1 0.2z m40.8-12.3c-1.5 0-2.9-1-3.4-2.5-0.6-1.9 0.5-3.8 2.3-4.4l13.5-4.3c1.9-0.6 3.9 0.5 4.4 2.3 0.6 1.9-0.4 3.8-2.3 4.4l-13.5 4.3c-0.3 0.2-0.7 0.2-1 0.2z m40.5-13c-1.5 0-2.9-0.9-3.4-2.4-0.6-1.9 0.4-3.9 2.2-4.5 4.4-1.5 8.9-3 13.4-4.5 1.8-0.7 3.8 0.3 4.5 2.2 0.6 1.8-0.3 3.9-2.2 4.5-4.5 1.6-9 3.1-13.5 4.6-0.2 0-0.6 0.1-1 0.1z m40.2-14c-1.5 0-2.8-0.9-3.3-2.3-0.7-1.8 0.3-3.9 2.1-4.5l13.3-4.8c1.8-0.7 3.9 0.3 4.5 2.1 0.7 1.8-0.3 3.9-2.1 4.5l-13.4 4.8c-0.2 0.2-0.7 0.2-1.1 0.2z m39.9-14.8c-1.4 0-2.8-0.9-3.3-2.3-0.7-1.8 0.2-3.9 2-4.6l13.2-5.1c1.8-0.7 3.9 0.2 4.6 2 0.7 1.8-0.2 3.9-2 4.6-4.4 1.7-8.8 3.5-13.2 5.2-0.4 0.2-0.8 0.2-1.3 0.2z m39.6-15.7c-1.4 0-2.7-0.8-3.3-2.2-0.7-1.8 0.1-3.9 1.9-4.6 4.3-1.8 8.7-3.6 13.1-5.5 1.7-0.7 3.9 0.1 4.7 1.9 0.8 1.8-0.1 3.9-1.9 4.7-4.4 1.9-8.7 3.7-13.1 5.5-0.5 0.1-1 0.2-1.4 0.2z m39-16.9c-1.4 0-2.6-0.8-3.2-2.1-0.8-1.8 0-3.9 1.8-4.7 4.3-1.9 8.6-3.9 12.8-5.8 1.8-0.8 3.9 0 4.7 1.7 0.8 1.8 0 3.9-1.7 4.7-4.3 2-8.6 3.9-12.9 5.9-0.5 0.2-1 0.3-1.5 0.3z m38.6-17.9c-1.3 0-2.6-0.7-3.2-2-0.9-1.8-0.1-3.9 1.6-4.7 4.2-2.1 8.5-4.1 12.7-6.3 1.7-0.8 3.9-0.2 4.7 1.6 0.9 1.7 0.2 3.9-1.6 4.7-4.2 2.1-8.5 4.2-12.8 6.3-0.4 0.3-0.9 0.4-1.4 0.4z m38-19.3c-1.3 0-2.5-0.7-3.1-1.9-0.9-1.7-0.3-3.9 1.5-4.8 4.2-2.2 8.4-4.4 12.5-6.7 1.7-0.9 3.9-0.3 4.8 1.4 0.9 1.7 0.3 3.9-1.4 4.8-4.2 2.3-8.4 4.5-12.6 6.7-0.6 0.4-1.2 0.5-1.7 0.5z m37.2-20.6c-1.2 0-2.4-0.6-3.1-1.8-1-1.7-0.4-3.9 1.3-4.8 4.1-2.4 8.2-4.8 12.2-7.2 1.6-1 3.8-0.5 4.9 1.2 1 1.7 0.5 3.9-1.2 4.9-4.1 2.4-8.1 4.8-12.2 7.2-0.6 0.3-1.2 0.5-1.9 0.5z m36.4-22.2c-1.2 0-2.3-0.6-3-1.6-1.1-1.6-0.6-3.8 1.1-4.9 4-2.6 7.9-5.1 11.8-7.7 1.6-1.1 3.8-0.7 4.9 1 1.1 1.6 0.7 3.8-1 4.9-3.9 2.6-7.9 5.2-11.9 7.8-0.6 0.3-1.3 0.5-1.9 0.5z m35.1-23.9c-1.1 0-2.2-0.5-2.9-1.5-1.1-1.6-0.8-3.8 0.8-5 3.8-2.8 7.6-5.5 11.4-8.3 1.6-1.2 3.8-0.8 5 0.7 1.2 1.6 0.8 3.8-0.7 5-3.8 2.8-7.6 5.6-11.5 8.4-0.6 0.5-1.3 0.7-2.1 0.7z m33.8-25.8c-1 0-2-0.4-2.7-1.3-1.2-1.5-1-3.8 0.5-5 3.7-3 7.3-6 10.8-9 1.5-1.2 3.7-1.1 5 0.4 1.3 1.5 1.1 3.7-0.4 5-3.6 3.1-7.3 6.1-10.9 9.1-0.7 0.5-1.5 0.8-2.3 0.8z" fill="#E71F19" p-id="16958"></path></svg>