<?xml version="1.0" standalone="no"?><!DOCTYPE svg PUBLIC "-//W3C//DTD SVG 1.1//EN" "http://www.w3.org/Graphics/SVG/1.1/DTD/svg11.dtd"><svg t="1560304690062" class="icon" style="" viewBox="0 0 1024 1024" version="1.1" xmlns="http://www.w3.org/2000/svg" p-id="4277" xmlns:xlink="http://www.w3.org/1999/xlink" width="32" height="32"><defs><style type="text/css"></style></defs><path d="M487.1 447.2l134.6 139c7.6-10 16.9-18.7 27.3-25.7L508.8 415.8c-5.5 11.7-12.9 22.3-21.7 31.4z m289.2-133.4L674.6 549.1c12.6 2.3 24.3 6.7 35 12.9l99.5-230.2c-11.9-4.2-22.9-10.2-32.8-18z m0 0" fill="#8599A9" p-id="4278"></path><path d="M672.9 685.3c41 0 74.3-33.3 74.3-74.3s-33.3-74.3-74.3-74.3c-41.1 0-74.3 33.3-74.3 74.3-0.1 41 33.2 74.3 74.3 74.3z m0 0" fill="#8599A9" p-id="4279"></path><path d="M672.8 573.8c20.5 0 37.2 16.6 37.2 37.2 0 20.5-16.6 37.2-37.2 37.2-20.5 0-37.2-16.6-37.2-37.2 0.1-20.5 16.7-37.2 37.2-37.2zM821.4 351c41 0 74.3-33.3 74.3-74.3s-33.3-74.3-74.3-74.3c-41.1 0-74.3 33.3-74.3 74.3s33.3 74.3 74.3 74.3z m0 0" fill="#8599A9" p-id="4280"></path><path d="M821.1 239.5c9.9-0.1 19.4 3.8 26.4 10.7 7 6.9 11 16.4 11.1 26.3-0.2 20.5-16.9 37.1-37.5 37-9.9 0.1-19.4-3.8-26.4-10.7-7-6.9-11-16.4-11.1-26.3 0-20.4 16.9-37 37.5-37zM400.3 406L239.4 595.7c10 7.7 18.6 17.1 25.5 27.7l160.9-189.6c-10-7.9-18.6-17.2-25.5-27.8z m0 0" fill="#8599A9" p-id="4281"></path><path d="M276.6 648.1c0-41-33.3-74.3-74.3-74.3S128 607.1 128 648.1s33.3 74.3 74.3 74.3 74.3-33.2 74.3-74.3z m0 0" fill="#8599A9" p-id="4282"></path><path d="M165.1 654.3c0-20.5 16.7-37.2 37.1-37.2 20.5 0 37.2 16.6 37.2 37.2 0 20.5-16.6 37.2-37.2 37.2-20.5-0.1-37.1-16.7-37.1-37.2z m668.7 92.9c0 20.5-16.6 37.1-37.1 37.2H276.5c-16.1 0-30.3-10.3-35.3-25.6-12.5 4.6-25.6 7-38.9 7 0 30.8 25 55.7 55.7 55.7h557.2c30.8 0 55.7-24.9 55.7-55.7V379.4c-11.3 6.5-23.8 11.1-37.1 13.3v354.5zM239.4 301.4c0-20.5 16.7-37.2 37.1-37.2h428.8c2.2-13.1 6.7-25.7 13.3-37.2H258.1c-30.8 0-55.7 25-55.7 55.7v260c13.1 0 25.5 2.2 37.1 6.3l-0.1-247.6z m0 0" fill="#8599A9" p-id="4283"></path><path d="M449.9 487.2c41 0 74.3-33.3 74.3-74.3s-33.3-74.3-74.3-74.3-74.3 33.3-74.3 74.3 33.3 74.2 74.3 74.3z m0 0" fill="#8599A9" p-id="4284"></path><path d="M449.9 375.7c20.5 0 37.1 16.6 37.1 37.1s-16.6 37.1-37.1 37.1-37.1-16.6-37.1-37.1c0.1-20.5 16.7-37.1 37.1-37.1z m0 0" fill="#8599A9" p-id="4285"></path></svg>