<?xml version="1.0" standalone="no"?><!DOCTYPE svg PUBLIC "-//W3C//DTD SVG 1.1//EN" "http://www.w3.org/Graphics/SVG/1.1/DTD/svg11.dtd"><svg t="1562391393280" class="icon" viewBox="0 0 1024 1024" version="1.1" xmlns="http://www.w3.org/2000/svg" p-id="10868" xmlns:xlink="http://www.w3.org/1999/xlink" width="128" height="128"><defs><style type="text/css"></style></defs><path d="M711.4 976.7H301.9c-29.8 0-54.6-22.3-57.7-52v-0.2l-3.8-41.4c-19-208 16.6-418.4 103-608.6 2.8-6.1 8.8-10 15.5-10h185.8c5.3 0 10.3 2.5 13.5 6.7l81.1 105.9C768.6 527.4 817.1 732 769 924.4l-2.3 9.1c-6.3 25.4-29.1 43.2-55.3 43.2zM278 921.3c1.3 12.2 11.6 21.4 23.9 21.4h409.5c10.6 0 19.7-7.2 22.3-17.4l2.3-9.1c45.5-181.9-0.5-375.2-122.9-517.2-0.2-0.2-0.4-0.5-0.6-0.8l-76.3-99.6H369.9C289.2 480.7 256.1 681.5 274.2 880l3.8 41.3z" fill="#4C4C4C" p-id="10869"></path><path d="M525.3 297.3H376.9c-9.4 0-17-7.6-17-17V216c0-9.4 7.6-17 17-17h148.4c9.4 0 17 7.6 17 17v64.3c0 9.3-7.6 17-17 17z m-131.4-34h114.4V233H393.9v30.3z" fill="#4C4C4C" p-id="10870"></path><path d="M514.9 223.2c-1.5 0-3-0.2-4.6-0.6-9-2.5-14.3-11.9-11.8-20.9l10.4-37.3c2-7.3 8.7-12.4 16.4-12.4h49.4l48.9-24v-22.1l-48.9-24H395.3l-49 65.3c-0.3 0.4-1.1 1.5-0.3 3.1 0.8 1.7 2.2 1.7 2.7 1.7h28.2c7.6 0 14.3 5.1 16.4 12.4l10.4 37.3c2.5 9-2.8 18.4-11.8 20.9s-18.4-2.8-20.9-11.8l-6.9-24.9h-15.3c-14.1 0-26.8-7.8-33.1-20.5-6.3-12.6-5-27.5 3.5-38.7l54.1-72.1c3.2-4.3 8.2-6.8 13.6-6.8h191.8c2.6 0 5.2 0.6 7.5 1.7l62 30.4c5.8 2.9 9.5 8.8 9.5 15.3v43.3c0 6.5-3.7 12.4-9.5 15.3l-62 30.4c-2.3 1.1-4.9 1.7-7.5 1.7h-40.5l-6.9 24.9c-2.1 7.5-9 12.4-16.4 12.4zM503.4 854c-101.2 0-183.6-82.4-183.6-183.6s82.4-183.6 183.6-183.6c101.2 0 183.6 82.4 183.6 183.6S604.7 854 503.4 854z m0-333.1c-82.5 0-149.6 67.1-149.6 149.6S421 820 503.4 820 653 752.9 653 670.4s-67.1-149.5-149.6-149.5z" fill="#4C4C4C" p-id="10871"></path><path d="M651.4 261.7c-4.4 0-8.7-1.7-12-5l-75.8-75.8c-6.6-6.6-6.6-17.4 0-24 6.6-6.6 17.4-6.6 24 0l75.8 75.8c6.6 6.6 6.6 17.4 0 24-3.3 3.3-7.6 5-12 5z" fill="#4C4C4C" p-id="10872"></path></svg>