<?xml version="1.0" standalone="no"?><!DOCTYPE svg PUBLIC "-//W3C//DTD SVG 1.1//EN" "http://www.w3.org/Graphics/SVG/1.1/DTD/svg11.dtd"><svg t="1560137025937" class="icon" style="" viewBox="0 0 1063 1024" version="1.1" xmlns="http://www.w3.org/2000/svg" p-id="4630" xmlns:xlink="http://www.w3.org/1999/xlink" width="33.21875" height="32"><defs><style type="text/css"></style></defs><path d="M767.06048333 0H295.92433333C144.48771333 0 21.89616433 124.995305 21.89616433 276.431925v471.13615c0 151.43662 122.591549 276.431925 276.431925 276.431925h471.13615c151.43662 0 276.431925-122.591549 276.431925-276.431925V276.431925C1043.49240833 124.995305 918.49710333 0 767.06048333 0z m84.131455 747.568075c0 45.671362-38.460094 84.131455-84.131455 84.131456H295.92433333c-45.671362 0-84.131455-38.460094-84.131456-84.131456V276.431925c0-45.671362 36.056338-84.131455 84.131456-84.131456h471.13615c45.671362 0 84.131455 36.056338 84.131455 84.131456v471.13615z" fill="#333333" p-id="4631"></path><path d="M298.32808933 680.262911c21.633803-36.056338 31.248826-91.342723 33.652582-170.666667l26.441314 2.403756c0 24.037559 0 48.075117-2.403756 69.70892 7.211268 16.826291 16.826291 31.248826 28.845071 43.267606V478.347418h-76.920188v-26.441315h62.497653v-60.093896h-55.286385v-26.441315h55.286385v-60.093897h28.84507v60.093897h48.075117v26.441315h-48.075117v60.093896h55.286385V478.347418h-43.267606v60.093897h38.460094v26.441314h-38.460094v84.131456c24.037559 16.826291 55.286385 24.037559 88.938967 24.037558 67.305164 0 139.41784 0 218.741785-2.403756-4.807512 12.018779-9.615023 24.037559-12.01878 33.652582-91.342723 0-163.455399 0-218.741784-2.403755-64.901408 0-110.57277-26.441315-139.41784-81.7277-7.211268 36.056338-19.230047 69.70892-36.056338 96.150235-2.403756-9.615023-9.615023-21.633803-14.422535-36.056338z m141.821596-91.342723c9.615023-2.403756 19.230047-2.403756 28.84507-4.807512v-240.375587h-24.037558v-26.441314h153.840375v26.441314h-24.037559v221.14554c9.615023-2.403756 19.230047-2.403756 28.845071-4.807512 0 12.018779 0 21.633803 2.403756 28.845071-9.615023 2.403756-19.230047 2.403756-31.248827 4.807512v67.305164h-28.84507V598.535211c-38.460094 7.211268-74.516432 12.018779-100.957746 19.230047l-4.807512-28.84507z m57.690141-182.685446h50.478873v-60.093897h-50.478873V406.234742z m0 84.131455h50.478873V430.2723h-50.478873v60.093897z m50.478873 81.7277v-57.690141h-50.478873v64.901408c14.422535 0 33.652582-4.807512 50.478873-7.211267z m50.478873-192.30047v-28.84507h105.765258v28.84507c-4.807512 60.093897-14.422535 112.976526-31.248826 158.647888l36.056338 100.957746-24.037559 14.422535c-7.211268-26.441315-16.826291-50.478873-26.441314-74.516432-14.422535 31.248826-31.248826 60.093897-50.478873 84.131456l-21.633803-21.633803c24.037559-28.84507 43.267606-64.901408 57.690141-103.361502-16.826291-43.267606-33.652582-84.131455-50.478874-122.59155l26.441315-9.615023c12.018779 31.248826 26.441315 60.093897 38.460094 91.342723 9.615023-36.056338 16.826291-76.920188 19.230047-120.187794h-79.323944z" fill="#333333" p-id="4632"></path></svg>