<?xml version="1.0" standalone="no"?><!DOCTYPE svg PUBLIC "-//W3C//DTD SVG 1.1//EN" "http://www.w3.org/Graphics/SVG/1.1/DTD/svg11.dtd"><svg t="1560136343861" class="icon" style="" viewBox="0 0 1024 1024" version="1.1" xmlns="http://www.w3.org/2000/svg" p-id="14248" xmlns:xlink="http://www.w3.org/1999/xlink" width="32" height="32"><defs><style type="text/css"></style></defs><path d="M761.6 339.2H396.8c-25.6 0-44.8 12.8-44.8 25.6l44.8 121.6h352l44.8-121.6c12.8-12.8-6.4-25.6-32-25.6z m-352 480c-25.6 0-44.8 19.2-44.8 44.8 0 25.6 19.2 44.8 44.8 44.8 25.6 0 44.8-19.2 44.8-44.8 6.4-25.6-19.2-44.8-44.8-44.8z m288 0c-25.6 0-44.8 19.2-44.8 44.8 0 25.6 19.2 44.8 44.8 44.8 25.6 0 44.8-19.2 44.8-44.8 0-25.6-19.2-44.8-44.8-44.8z" fill="#BAF4EA" p-id="14249"></path><path d="M793.6 710.4H364.8c-12.8 0-25.6-12.8-25.6-25.6L268.8 345.6c-12.8-44.8-51.2-76.8-96-76.8h-32c-19.2 0-32 12.8-32 32s12.8 32 32 32h38.4c12.8 0 25.6 12.8 25.6 25.6l70.4 339.2c12.8 44.8 51.2 83.2 96 83.2h428.8c19.2 0 32-12.8 32-32s-19.2-38.4-38.4-38.4zM480 345.6h19.2c19.2 0 32-12.8 32-32s-12.8-32-32-32h-19.2c-19.2-6.4-32 12.8-32 32s12.8 32 32 32z m281.6-70.4H595.2c-19.2 0-32 19.2-32 38.4s12.8 32 32 32h166.4v6.4l-44.8 243.2c0 6.4-6.4 6.4-6.4 6.4H441.6c-6.4 0-6.4 0-6.4-6.4l-44.8-243.2v-6.4h6.4c19.2 0 32-12.8 32-32s-12.8-32-32-32c-25.6 0-44.8 12.8-57.6 25.6-12.8 12.8-19.2 38.4-19.2 57.6l44.8 243.2c6.4 38.4 38.4 64 76.8 64h268.8c38.4 0 70.4-25.6 76.8-64l44.8-243.2c6.4-19.2 0-44.8-19.2-64-6.4-12.8-32-25.6-51.2-25.6z m-352 518.4c-38.4 0-70.4 32-70.4 70.4 0 38.4 32 70.4 70.4 70.4 38.4 0 70.4-32 70.4-70.4 0-38.4-32-70.4-70.4-70.4z m0 89.6c-12.8 0-19.2-12.8-19.2-19.2 0-12.8 12.8-19.2 19.2-19.2 12.8 0 19.2 12.8 19.2 19.2 6.4 6.4-6.4 19.2-19.2 19.2z m-256-768c0-38.4-32-76.8-76.8-76.8S6.4 70.4 6.4 115.2 38.4 192 76.8 192s76.8-38.4 76.8-76.8z m-102.4 0c0-12.8 12.8-25.6 25.6-25.6s25.6 12.8 25.6 25.6-12.8 25.6-25.6 25.6-25.6-12.8-25.6-25.6z m646.4 678.4c-38.4 0-70.4 32-70.4 70.4 0 38.4 32 70.4 70.4 70.4s70.4-32 70.4-70.4c0-38.4-32-70.4-70.4-70.4z m0 89.6c-12.8 0-19.2-12.8-19.2-19.2 0-12.8 12.8-19.2 19.2-19.2s19.2 12.8 19.2 19.2c0 6.4-6.4 19.2-19.2 19.2z m300.8-812.8h-25.6V44.8c0-12.8-6.4-19.2-19.2-19.2-12.8 0-19.2 6.4-19.2 19.2v25.6h-25.6c-12.8 0-19.2 6.4-19.2 19.2 0 12.8 6.4 19.2 19.2 19.2h25.6v25.6c0 12.8 6.4 19.2 19.2 19.2 12.8 0 19.2-6.4 19.2-19.2v-25.6h25.6c12.8 0 19.2-6.4 19.2-19.2 0-12.8-6.4-19.2-19.2-19.2z m-32 851.2c-12.8-6.4-25.6-6.4-38.4 0-12.8 6.4-19.2 19.2-19.2 32s6.4 25.6 19.2 32c12.8 6.4 25.6 6.4 38.4 0 12.8-6.4 19.2-19.2 19.2-32s-6.4-25.6-19.2-32z m-384-780.8c6.4 6.4 19.2 6.4 25.6 0 6.4-6.4 12.8-12.8 12.8-25.6 0-6.4-6.4-19.2-12.8-19.2-6.4-6.4-19.2-6.4-25.6 0-6.4 6.4-12.8 12.8-12.8 19.2 0 12.8 6.4 19.2 12.8 25.6zM115.2 915.2c0-6.4-6.4-12.8-12.8-12.8H64c-6.4 0-12.8 6.4-12.8 12.8s6.4 12.8 12.8 12.8h38.4c6.4 0 12.8-6.4 12.8-12.8z m19.2-83.2c-6.4 0-12.8 6.4-12.8 12.8v38.4c0 6.4 6.4 12.8 12.8 12.8s12.8-6.4 12.8-12.8v-38.4c0-6.4-6.4-12.8-12.8-12.8z m0 102.4c-6.4 0-12.8 6.4-12.8 12.8v38.4c0 6.4 6.4 12.8 12.8 12.8s12.8-6.4 12.8-12.8v-38.4c0-6.4-6.4-12.8-12.8-12.8z m70.4-32h-38.4c-6.4 0-12.8 6.4-12.8 12.8s6.4 12.8 12.8 12.8h38.4c6.4 0 12.8-6.4 12.8-12.8s-6.4-12.8-12.8-12.8z m-83.2 25.6c-6.4-6.4-12.8-6.4-19.2 0l-25.6 25.6c-6.4 6.4-6.4 12.8 0 19.2l6.4 6.4s6.4 0 6.4-6.4l25.6-25.6c12.8-6.4 12.8-12.8 6.4-19.2z m25.6-25.6l6.4 6.4s6.4 0 6.4-6.4l32-25.6c6.4-6.4 6.4-12.8 0-19.2-6.4-6.4-12.8-6.4-19.2 0l-25.6 25.6c-6.4 6.4-6.4 12.8 0 19.2z m19.2 25.6c-6.4-6.4-12.8-6.4-19.2 0s-6.4 12.8 0 19.2l25.6 25.6 6.4 6.4s6.4 0 6.4-6.4c6.4-6.4 6.4-12.8 0-19.2l-19.2-25.6z m-70.4-70.4c-6.4-6.4-12.8-6.4-19.2 0-6.4 6.4-6.4 12.8 0 19.2l25.6 25.6 6.4 6.4s6.4 0 6.4-6.4c12.8-6.4 12.8-12.8 6.4-19.2l-25.6-25.6z" fill="#2D5B56" p-id="14250"></path></svg>