<?xml version="1.0" standalone="no"?><!DOCTYPE svg PUBLIC "-//W3C//DTD SVG 1.1//EN" "http://www.w3.org/Graphics/SVG/1.1/DTD/svg11.dtd"><svg t="1562322137785" class="icon" viewBox="0 0 1024 1024" version="1.1" xmlns="http://www.w3.org/2000/svg" p-id="9966" xmlns:xlink="http://www.w3.org/1999/xlink" width="128" height="128"><defs><style type="text/css"></style></defs><path d="M511.669 151.154l-310.706 93.207 1.948 380.77c0.428 1.637 0.966 3.508 1.647 5.655 2.135 6.741 5.073 14.32 8.965 22.584 11.358 24.114 28.07 48.387 51.29 71.299a285.047 285.047 0 0 0 6.642 6.345c20.364 18.97 58.87 44.158 109.924 72.672 36.89 20.604 70.045 37.614 119.627 62.15 0.39 0.194 5.047 2.506 10.095 5.048 28.721-13.198 71.545-34.301 111.102-55.596 60.618-32.633 107.608-62.423 130.86-84.12a290.165 290.165 0 0 0 6.807-6.5c23.221-22.912 39.934-47.186 51.292-71.299 3.893-8.264 6.83-15.843 8.965-22.582 0.361-1.14 0.682-2.2 0.968-3.19l1.943-383.226-311.37-93.217zM511.654 97l342.05 102.403C866.07 203.289 875 214.308 875 227.269l-2.064 407.02c-0.684 2.593-14.424 69.998-84.481 134.805-61.815 57.684-228.723 136.752-261.69 151.66l-9.617 4.537c-4.119 2.591-9.613 1.943-13.736 0l-6.183-3.241c-3.43-1.944-10.3-5.186-19.23-9.72-56.321-27.87-188.197-93.328-241.771-143.236-70.057-64.807-83.793-132.212-84.48-134.804l-0.689-4.541L149 227.269c0-12.961 8.242-23.98 21.294-27.866L511.654 97z" fill="#666666" p-id="9967"></path><path d="M512 486.063c42.96 0 77.786-34.838 77.786-77.813S554.96 330.437 512 330.437s-77.786 34.838-77.786 77.813S469.04 486.063 512 486.063z m25.929 103.75h77.776c14.325 0 25.938 11.612 25.938 25.937 0 14.325-11.613 25.938-25.938 25.938H537.93v77.82c0 14.32-11.609 25.93-25.929 25.93-14.32 0-25.929-11.61-25.929-25.93V535.344c-59.175-12.016-103.714-64.351-103.714-127.093 0-71.624 58.043-129.688 129.643-129.688s129.643 58.064 129.643 129.688c0 62.742-44.54 115.077-103.714 127.093v54.47z" fill="#666666" p-id="9968"></path></svg>