<?xml version="1.0" standalone="no"?><!DOCTYPE svg PUBLIC "-//W3C//DTD SVG 1.1//EN" "http://www.w3.org/Graphics/SVG/1.1/DTD/svg11.dtd"><svg t="1560304718532" class="icon" style="" viewBox="0 0 1024 1024" version="1.1" xmlns="http://www.w3.org/2000/svg" p-id="5691" xmlns:xlink="http://www.w3.org/1999/xlink" width="32" height="32"><defs><style type="text/css"></style></defs><path d="M844.373333 361.386667C826.026667 306.204444 795.448889 254.577778 756.622222 213.333333 622.933333 70.968889 409.884444 46.222222 247.04 150.897778l219.022222 335.502222 378.311111-125.013333zM174.648889 130.844444c-19.342222 12.8-37.262222 27.022222-53.76 42.524445-42.666667 40.106667-74.808889 89.031111-96.711111 144.355555l370.773333 147.484445L174.648889 130.844444z" fill="" p-id="5692"></path><path d="M541.155556 720.782222c0-130.844444 106.097778-236.8 236.8-236.8 25.742222 0 50.346667 4.266667 73.528888 11.804445-3.128889-26.595556-8.675556-53.048889-17.351111-79.075556l-379.591111 123.448889L83.768889 392.817778c-56.604444 144.213333-25.6 308.053333 80.071111 420.408889 121.742222 129.564444 309.191111 160.853333 461.795556 88.888889-51.626667-43.52-84.48-108.515556-84.48-181.333334z" fill="" p-id="5693"></path><path d="M785.208889 507.164444c-121.031111 0-219.306667 98.133333-219.306667 219.306667 0 121.173333 98.133333 219.306667 219.306667 219.306667 121.031111 0 219.306667-98.133333 219.306667-219.306667-0.142222-121.173333-98.275556-219.306667-219.306667-219.306667" fill="" p-id="5694"></path><path d="M776.675556 759.608889c-7.822222 0-14.222222-6.4-14.222223-14.222222v-139.377778c0-7.822222 6.4-14.222222 14.222223-14.222222s14.222222 6.4 14.222222 14.222222v139.377778c0 7.822222-6.4 14.222222-14.222222 14.222222z" fill="#FFFFFF" p-id="5695"></path><path d="M763.733333 745.386667c0-7.822222 6.4-14.222222 14.222223-14.222223h113.777777c7.822222 0 14.222222 6.4 14.222223 14.222223s-6.4 14.222222-14.222223 14.222222h-113.777777c-7.822222 0-14.222222-6.4-14.222223-14.222222z" fill="#FFFFFF" p-id="5696"></path></svg>