<?xml version="1.0" standalone="no"?><!DOCTYPE svg PUBLIC "-//W3C//DTD SVG 1.1//EN" "http://www.w3.org/Graphics/SVG/1.1/DTD/svg11.dtd"><svg t="1562391409597" class="icon" viewBox="0 0 1024 1024" version="1.1" xmlns="http://www.w3.org/2000/svg" p-id="11247" xmlns:xlink="http://www.w3.org/1999/xlink" width="128" height="128"><defs><style type="text/css"></style></defs><path d="M554.665716 554.677129m-106.664289 0a106.664289 106.664289 0 1 0 213.328578 0 106.664289 106.664289 0 1 0-213.328578 0Z" fill="#7FC8EB" p-id="11248"></path><path d="M512 810.671422m-42.665716 0a42.665716 42.665716 0 1 0 85.331432 0 42.665716 42.665716 0 1 0-85.331432 0Z" fill="#F7F11C" p-id="11249"></path><path d="M682.662862 512.011413c0-93.864574-76.798288-170.662862-170.662862-170.662862s-170.662862 76.798288-170.662862 170.662862 76.798288 170.662862 170.662862 170.662862 170.662862-76.798288 170.662862-170.662862z m-255.994293 0c0-46.932287 38.399144-85.331431 85.331431-85.331431s85.331431 38.399144 85.331431 85.331431-38.399144 85.331431-85.331431 85.331431-85.331431-38.399144-85.331431-85.331431z m595.186732-34.132572C1004.789015 228.284404 808.526723 25.622256 558.932287 2.156112 298.671422-21.310032 74.676415 149.352831 14.944414 388.280838c-8.533143 36.265858 12.799715 72.531716 49.065572 81.06486l117.330718 42.665715c38.399144 0 72.531716-27.732715 83.198146-66.131859 29.866001-108.797575 127.997147-189.862434 247.46115-189.862434s217.595149 81.06486 247.46115 189.862434c10.666429 38.399144 42.665716 66.131859 83.198146 66.131859l93.864574-34.132572c0 10.666429 2.133286 23.466144 2.133286 34.132572 0 234.661436-191.99572 426.657156-426.657156 426.657156-209.062006 0-383.99144-151.46329-420.257298-351.992154-2.133286-17.066286-14.933-29.866001-31.999287-34.132572-29.866001-8.533143-57.598716 19.199572-53.332145 49.065573C51.210272 842.670709 260.272278 1024 512 1024c294.393437 0 531.188159-247.46115 509.855301-546.121159zM842.659296 426.679982c-38.399144-147.196719-170.662862-255.994293-330.659296-255.994294S219.739848 279.483263 181.340704 426.679982l-81.064859-29.866001C151.474703 217.617976 315.737708 85.354257 512 85.354257c196.262292 0 360.525297 132.263718 409.59087 311.459724L842.659296 426.679982z" fill="#0092D8" p-id="11250"></path></svg>