<?xml version="1.0" standalone="no"?><!DOCTYPE svg PUBLIC "-//W3C//DTD SVG 1.1//EN" "http://www.w3.org/Graphics/SVG/1.1/DTD/svg11.dtd"><svg t="1560136278399" class="icon" style="" viewBox="0 0 1024 1024" version="1.1" xmlns="http://www.w3.org/2000/svg" p-id="12012" xmlns:xlink="http://www.w3.org/1999/xlink" width="32" height="32"><defs><style type="text/css"></style></defs><path d="M512 512m-512 0a512 512 0 1 0 1024 0 512 512 0 1 0-1024 0Z" fill="#1BCCAC" p-id="12013"></path><path d="M636.16 344.32L618.24 230.4H405.76l-19.2 113.92c-33.28 23.04-55.04 56.32-55.04 93.44V588.8c0 37.12 20.48 69.12 55.04 93.44l19.2 113.92h211.2l19.2-113.92c33.28-23.04 55.04-56.32 55.04-93.44V437.76c0-37.12-20.48-69.12-55.04-93.44z m-192-81.92h135.68l10.24 58.88c-23.04-7.68-47.36-11.52-72.96-11.52h-8.96c-25.6 0-49.92 3.84-72.96 11.52l8.96-58.88z m135.68 501.76H444.16l-10.24-58.88c23.04 7.68 47.36 11.52 72.96 11.52h8.96c25.6 0 49.92-3.84 72.96-11.52l-8.96 58.88zM648.96 588.8c0 53.76-58.88 97.28-131.84 97.28h-8.96c-72.96 0-131.84-43.52-131.84-97.28V437.76c0-53.76 58.88-97.28 131.84-97.28h8.96c72.96 0 131.84 43.52 131.84 97.28V588.8z m-170.24-108.8h-44.8v28.16h44.8v-28.16z m-44.8 65.28h44.8v-28.16h-44.8v28.16z m156.16-65.28h-44.8v28.16h44.8v-28.16z m-44.8 65.28h44.8v-28.16h-44.8v28.16z" fill="#FFFFFF" p-id="12014"></path></svg>