<?xml version="1.0" standalone="no"?><!DOCTYPE svg PUBLIC "-//W3C//DTD SVG 1.1//EN" "http://www.w3.org/Graphics/SVG/1.1/DTD/svg11.dtd"><svg t="1562391375818" class="icon" viewBox="0 0 1024 1024" version="1.1" xmlns="http://www.w3.org/2000/svg" p-id="10660" xmlns:xlink="http://www.w3.org/1999/xlink" width="128" height="128"><defs><style type="text/css"></style></defs><path d="M738.5 369.4h-75.6c0-87.2-49.3-181.1-157.4-181.1-108.2 0-157.4 93.9-157.4 181.1h-75.6c0-148.7 98-256.6 233-256.6s233 107.9 233 256.6z" fill="#4F95FC" p-id="10661"></path><path d="M505.5 131.7c59.9 0 114.3 23.6 153.2 66.4 35.6 39.2 56.7 92.8 60.4 152.5h-37.9c-6.8-90.5-62.4-181.1-175.6-181.1-113.3 0-168.9 90.6-175.6 181.1h-37.9c3.7-59.7 24.8-113.3 60.4-152.5 38.7-42.8 93.1-66.4 153-66.4m0-18.9c-135 0-233 107.9-233 256.6H348c0-87.2 49.3-181.1 157.4-181.1 108.2 0 157.4 93.9 157.4 181.1h75.6c0.1-148.7-97.9-256.6-232.9-256.6z" fill="" p-id="10662"></path><path d="M51.2 790.6l65.2-412c9.9-48.5 52.5-83.3 102-83.3h588.2c49.5 0 92.1 34.8 102 83.3l65.2 412c13.2 64.5-36.1 124.9-102 124.9H153.2c-65.8 0-115.1-60.4-102-124.9z" fill="#83CDFF" p-id="10663"></path><path d="M806.6 314.3c40.2 0 75.2 28.5 83.4 67.8l65.1 411.5 0.1 0.4 0.1 0.4c5.1 25.2-1.2 51-17.5 70.9-16.2 19.9-40.3 31.3-66 31.3H153.2c-25.7 0-49.7-11.4-66-31.3-16.2-19.9-22.6-45.7-17.5-70.9l0.1-0.4 0.1-0.4L135 382c8.2-39.3 43.2-67.8 83.4-67.8h588.2m0-18.8H218.4c-49.5 0-92.1 34.8-102 83.3l-65.2 412c-13.2 64.5 36.1 124.9 102 124.9h718.5c65.9 0 115.2-60.4 102-124.9l-65.2-412c-9.8-48.5-52.5-83.3-101.9-83.3z" fill="" p-id="10664"></path><path d="M509.3 594.5c-270.3 0-409.2-100.3-411-101.3l2.6-16.3c1.7 1 143.6 98.7 408.4 98.7 265.3 0 413-97.7 414.8-98.7l2.6 16.3c-1.9 1-147.4 101.3-417.4 101.3z" fill="" p-id="10665"></path><path d="M512.5 586.3m-59.1 0a59.1 59.1 0 1 0 118.2 0 59.1 59.1 0 1 0-118.2 0Z" fill="#FFF188" p-id="10666"></path><path d="M512.5 546c22.2 0 40.2 18.1 40.2 40.2 0 22.2-18.1 40.2-40.2 40.2-22.2 0-40.2-18.1-40.2-40.2-0.1-22.1 18-40.2 40.2-40.2m0-18.9c-32.7 0-59.1 26.5-59.1 59.1 0 32.7 26.5 59.1 59.1 59.1 32.7 0 59.1-26.5 59.1-59.1s-26.5-59.1-59.1-59.1z" fill="" p-id="10667"></path><path d="M268.3 381m-23 0a23 23 0 1 0 46 0 23 23 0 1 0-46 0Z" fill="#64C8FF" p-id="10668"></path><path d="M497.4 476.9m-23 0a23 23 0 1 0 46 0 23 23 0 1 0-46 0Z" fill="#64C8FF" p-id="10669"></path><path d="M330.9 493.2m-23 0a23 23 0 1 0 46 0 23 23 0 1 0-46 0Z" fill="#64C8FF" p-id="10670"></path><path d="M661.5 381m-23 0a23 23 0 1 0 46 0 23 23 0 1 0-46 0Z" fill="#64C8FF" p-id="10671"></path><path d="M837.5 453.9m-23 0a23 23 0 1 0 46 0 23 23 0 1 0-46 0Z" fill="#64C8FF" p-id="10672"></path><path d="M528.5 392.5m-23 0a23 23 0 1 0 46 0 23 23 0 1 0-46 0Z" fill="#64C8FF" p-id="10673"></path><path d="M194.3 437.6m-23 0a23 23 0 1 0 46 0 23 23 0 1 0-46 0Z" fill="#64C8FF" p-id="10674"></path><path d="M692.7 485.4m-23 0a23 23 0 1 0 46 0 23 23 0 1 0-46 0Z" fill="#64C8FF" p-id="10675"></path><path d="M785.9 369.4m-23 0a23 23 0 1 0 46 0 23 23 0 1 0-46 0Z" fill="#64C8FF" p-id="10676"></path><path d="M382.6 392.5m-23 0a23 23 0 1 0 46 0 23 23 0 1 0-46 0Z" fill="#64C8FF" p-id="10677"></path></svg>