<?xml version="1.0" standalone="no"?><!DOCTYPE svg PUBLIC "-//W3C//DTD SVG 1.1//EN" "http://www.w3.org/Graphics/SVG/1.1/DTD/svg11.dtd"><svg t="1560136258212" class="icon" style="" viewBox="0 0 1024 1024" version="1.1" xmlns="http://www.w3.org/2000/svg" p-id="11396" xmlns:xlink="http://www.w3.org/1999/xlink" width="32" height="32"><defs><style type="text/css"></style></defs><path d="M877 412c16.6 0 30 13.4 30 30v100c0 16.6-13.4 30-30 30s-30-13.4-30-30V442c0-16.6 13.4-30 30-30z m-75 0c16.6 0 30 13.4 30 30v100c0 16.6-13.4 30-30 30s-30-13.4-30-30V442c0-16.6 13.4-30 30-30z m-75 0c16.6 0 30 13.4 30 30v100c0 16.6-13.4 30-30 30s-30-13.4-30-30V442c0-16.6 13.4-30 30-30z" fill="#FF098F" p-id="11397"></path><path d="M412 740c11 0 20-9 20-20s-9-20-20-20-20 9-20 20 9 20 20 20z m0 60c-44.2 0-80-35.8-80-80s35.8-80 80-80 80 35.8 80 80-35.8 80-80 80z" fill="#FF098F" p-id="11398"></path><path d="M802 880V632c0-33.1-26.9-60-60-60v248c0 33.1 26.9 60 60 60zM572 324c49.7 0 90-40.3 90-90s-40.3-90-90-90-90 40.3-90 90 40.3 90 90 90z m-320 0c49.7 0 90-40.3 90-90s-40.3-90-90-90-90 40.3-90 90 40.3 90 90 90z m160 183c49.7 0 90-40.3 90-90s-40.3-90-90-90-90 40.3-90 90 40.3 90 90 90z m13.8-239.4c-2.5-10.8-3.8-22.1-3.8-33.6 0-25.9 6.6-50.3 18.1-71.5-9.1-1.6-18.5-2.5-28.1-2.5s-19 0.8-28.1 2.5c11.6 21.3 18.1 45.6 18.1 71.5 0 11.6-1.3 22.8-3.8 33.6 4.5-0.4 9.1-0.6 13.8-0.6s9.2 0.2 13.8 0.6zM698.1 880c-10.2-17.7-16.1-38.1-16.1-60V572c0-33.1 26.9-60 60-60h120c33.1 0 60 26.9 60 60v248c0 66.3-53.7 120-120 120H422c-0.9 0-1.8 0-2.7-0.1-2.4 0.1-4.9 0.1-7.3 0.1-121.5 0-220-98.5-220-220V371.5c-53-23.1-90-76-90-137.5 0-82.8 67.2-150 150-150 32.7 0 62.9 10.5 87.6 28.2 22.7-7.9 47.1-12.2 72.4-12.2s49.7 4.3 72.4 12.2C509.1 94.5 539.3 84 572 84c82.8 0 150 67.2 150 150 0 61.5-37 114.4-90 137.5V522c0 16.6-13.4 30-30 30s-30-13.4-30-30V384c-4.6 0-9.2-0.2-13.8-0.6 2.5 10.8 3.8 22.1 3.8 33.6 0 82.8-67.2 150-150 150-25.3 0-49.1-6.3-70-17.3v314.2c21.1 10.3 44.9 16.1 70 16.1 88.4 0 160-71.6 160-160v-88c0-16.6 13.4-30 30-30s30 13.4 30 30v88c0 63-26.5 119.9-69 160h135.1z" fill="#2D97FF" p-id="11399"></path></svg>