<?xml version="1.0" standalone="no"?><!DOCTYPE svg PUBLIC "-//W3C//DTD SVG 1.1//EN" "http://www.w3.org/Graphics/SVG/1.1/DTD/svg11.dtd"><svg t="1561080256928" class="icon" viewBox="0 0 1024 1024" version="1.1" xmlns="http://www.w3.org/2000/svg" p-id="30976" xmlns:xlink="http://www.w3.org/1999/xlink" width="128" height="128"><defs><style type="text/css"></style></defs><path d="M537.5 942.6c-107.1 0-193.8-93.1-193.8-208l5.2-223.5L328.2 399l15.5-221.9h387.7l15.5 224.7-20.6 109.1 5.1 223.7c0 114.9-86.8 208-193.9 208z" fill="#1E91D0" p-id="30977" data-spm-anchor-id="a313x.7781069.0.i83" class="selected"></path><path d="M512 960c-129.5 0-234.9-105.4-234.9-234.9l5.8-232.1-23.3-117.7 18.8-250.4h467.3l18.8 253.4-23.2 114.5 5.7 231.9C746.9 854.6 641.5 960 512 960zM294.7 373.2L317.8 490l-5.9 235.6c0 109.9 89.8 199.7 200.1 199.7s200.1-89.8 200.1-200.1l-5.8-235.4 23-113.7-16-216.4H310.7l-16 213.5z" fill="#331212" p-id="30978"></path><path d="M477.2 151h-174V98.8c0-19.2 15.6-34.8 34.8-34.8h104.4c19.2 0 34.8 15.6 34.8 34.8V151zM338 116.2h104.4V98.8H338v17.4zM720.8 151h-174V98.8c0-19.2 15.6-34.8 34.8-34.8H686c19.2 0 34.8 15.6 34.8 34.8V151z m-139.2-34.8H686V98.8H581.6v17.4zM599 499H425c-18.7 0-34-14.8-34.8-33.4l-17.4-123.2c0-19.2 15.6-34.8 34.8-34.8h208.8c19.2 0 34.8 15.6 34.8 34.8l-0.2 2.5-17.2 120.8C633 484.1 617.7 499 599 499zM407.8 342.4L425 464.2h174l0.2-2.5 17-119.3H407.8z" fill="#331212" p-id="30979"></path><path d="M538.1 829.5h-52.2c-14.4 0-26.1-11.7-26.1-26.1 0-14.4 11.7-26.1 26.1-26.1h52.2c14.4 0 26.1 11.7 26.1 26.1 0 14.4-11.7 26.1-26.1 26.1z" fill="#FFFFFF" p-id="30980"></path><path d="M538.1 838.2h-52.2c-19.2 0-34.8-15.6-34.8-34.8 0-19.2 15.6-34.8 34.8-34.8h52.2c19.2 0 34.8 15.6 34.8 34.8 0 19.2-15.6 34.8-34.8 34.8zM485.9 786c-9.6 0-17.4 7.8-17.4 17.4 0 9.6 7.8 17.4 17.4 17.4h52.2c9.6 0 17.4-7.8 17.4-17.4 0-9.6-7.8-17.4-17.4-17.4h-52.2z" fill="#331212" p-id="30981"></path></svg>