<?xml version="1.0" standalone="no"?><!DOCTYPE svg PUBLIC "-//W3C//DTD SVG 1.1//EN" "http://www.w3.org/Graphics/SVG/1.1/DTD/svg11.dtd"><svg t="1561079867843" class="icon" viewBox="0 0 1024 1024" version="1.1" xmlns="http://www.w3.org/2000/svg" p-id="9117" data-spm-anchor-id="a313x.7781069.0.i27" xmlns:xlink="http://www.w3.org/1999/xlink" width="128" height="128"><defs><style type="text/css"></style></defs><path d="M512 0a512 512 0 1 0 512 512A512 512 0 0 0 512 0z m-46.762667 801.564444l-49.152-101.376-44.487111 34.816a34.133333 34.133333 0 0 1-22.755555 8.760889h-91.022223l9.102223-27.192889h79.644444c4.323556 1.365333 9.216-0.682667 14.677333-5.802666l34.133334-28.216889H279.552l9.898667-29.240889H420.977778l45.511111-132.437333h31.744l-45.511111 132.437333h39.025778L481.848889 682.666667h-35.271111l38.115555 40.049777 56.092445-34.133333h29.923555l-49.265777 54.613333zM334.620444 523.377778h30.833778l2.616889 16.611555c0 4.551111 2.275556 6.599111 7.964445 5.802667H432.355556l-9.557334 28.216889h-71.68c-9.329778 0.682667-13.994667-3.185778-14.222222-11.377778z m10.467556 65.308444l1.479111 11.377778c-0.910222 4.551111 1.706667 6.485333 7.964445 5.802667h58.140444l-9.102222 27.192889h-69.973334c-11.377778 1.251556-17.408-2.275556-16.270222-10.695112l-1.137778-34.133333z m350.435556 149.276445h-39.936c-9.557333 1.365333-13.084444-4.209778-11.377778-16.611556l1.592889-34.133333h29.923555l-0.910222 21.390222q-1.706667 7.736889 6.712889 6.826667h20.935111z m20.48-56.888889h-91.022223l-15.132444 44.259555c-4.096 11.377778-10.581333 17.521778-19.569778 17.521778h-37.205333l8.192-24.348444h14.449778c2.161778 0.682667 4.551111-1.592889 6.826666-6.826667l10.581334-31.175111h-84.195556l9.102222-27.192889H603.022222l5.006222-14.563556h31.744l-5.006222 14.563556h89.884445z m40.618666-125.155556l-92.956444 45.966222 6.599111 4.892445a15.132444 15.132444 0 0 0 12.629333 2.958222h56.888889l-8.874667 26.168889H662.186667a25.486222 25.486222 0 0 1-19.456-6.826667l-13.994667-9.784889-19.911111 10.695112a43.349333 43.349333 0 0 1-24.689778 5.802666H523.377778l8.874666-26.168889h51.882667a17.408 17.408 0 0 0 11.377778-2.958222l9.784889-4.892444-43.576889-32.085334H614.4l24.348444 16.611556 61.44-31.175111h-88.746666a24.917333 24.917333 0 0 1-21.731556 7.850666h-41.756444l7.850666-23.438222h23.552a17.294222 17.294222 0 0 0 14.222223-6.826666l11.377777-12.629334h31.061334l-6.144 6.826667h136.533333z m60.074667-39.708444L512 474.225778 207.189333 515.413333V268.060444h609.621334z" fill="#1E91D0" p-id="9118" data-spm-anchor-id="a313x.7781069.0.i25" class="selected"></path><path d="M324.152889 345.998222h0.341333l21.504 82.716445v0.113777h24.348445l35.384889-117.987555h-22.186667l-24.348445 83.968h-0.227555l-21.276445-83.968h-24.917333l-35.384889 117.873778h22.414222l24.348445-82.716445zM476.16 428.714667l6.599111-21.845334H422.115556l8.647111-28.899555h55.296l6.144-20.138667H436.906667l7.509333-25.258667h59.847111l6.371556-21.731555h-83.854223l-35.271111 117.873778h84.650667zM580.949333 344.519111h0.341334l-6.144 84.195556h24.007111l64.056889-117.873778h-24.234667l-42.780444 86.016h-0.227556l6.144-86.016h-23.096889l-43.804444 86.357333h-0.227556l7.395556-86.357333h-24.234667l-4.664889 117.873778h24.348445l43.121777-84.195556zM746.268444 345.998222zM662.300444 357.603556a23.438222 23.438222 0 0 0 5.347556 8.874666 30.72 30.72 0 0 0 8.192 5.916445 75.889778 75.889778 0 0 0 9.784889 3.982222q4.778667 1.820444 9.784889 3.299555a48.128 48.128 0 0 1 8.305778 3.185778 17.976889 17.976889 0 0 1 5.916444 4.664889 9.216 9.216 0 0 1 1.820444 7.054222 15.473778 15.473778 0 0 1-2.730666 7.623111 19.342222 19.342222 0 0 1-5.461334 5.12 25.031111 25.031111 0 0 1-7.054222 2.958223 32.540444 32.540444 0 0 1-7.509333 0.910222 42.439111 42.439111 0 0 1-9.557333-1.137778 17.408 17.408 0 0 1-7.281778-3.527111 13.994667 13.994667 0 0 1-4.209778-6.599111 25.031111 25.031111 0 0 1 0-10.581333h-22.755556a37.091556 37.091556 0 0 0 7.623112 31.630222 46.421333 46.421333 0 0 0 33.336888 10.012444 65.991111 65.991111 0 0 0 16.042667-2.048 49.379556 49.379556 0 0 0 14.904889-6.371555 42.439111 42.439111 0 0 0 11.377778-12.060445 39.594667 39.594667 0 0 0 6.144-18.090666 35.271111 35.271111 0 0 0-0.796445-13.312 22.755556 22.755556 0 0 0-5.12-9.329778 28.330667 28.330667 0 0 0-8.647111-6.144 75.776 75.776 0 0 0-11.377778-4.209778l-7.054222-1.820444a49.379556 49.379556 0 0 1-8.419555-2.958223 20.935111 20.935111 0 0 1-6.712889-4.778666 8.760889 8.760889 0 0 1-2.275556-7.168 14.791111 14.791111 0 0 1 2.389334-6.940445 16.725333 16.725333 0 0 1 5.006222-4.551111 20.707556 20.707556 0 0 1 6.485333-2.503111 38.343111 38.343111 0 0 1 6.940445-0.682667 31.061333 31.061333 0 0 1 7.736888 0.910223 14.108444 14.108444 0 0 1 6.144 3.072 11.377778 11.377778 0 0 1 3.640889 5.575111 18.204444 18.204444 0 0 1 0 8.305777h22.755556a34.133333 34.133333 0 0 0-1.820445-17.635555 28.216889 28.216889 0 0 0-7.736888-11.377778 30.378667 30.378667 0 0 0-12.401778-6.599111 56.888889 56.888889 0 0 0-15.701334-2.048 62.464 62.464 0 0 0-16.042666 2.048 49.607111 49.607111 0 0 0-14.563556 6.599111 40.504889 40.504889 0 0 0-11.377778 11.377778 37.319111 37.319111 0 0 0-5.575111 16.839111 29.354667 29.354667 0 0 0 2.503111 12.515556z" fill="#1E91D0" p-id="9119" data-spm-anchor-id="a313x.7781069.0.i28" class="selected"></path></svg>