<?xml version="1.0" standalone="no"?><!DOCTYPE svg PUBLIC "-//W3C//DTD SVG 1.1//EN" "http://www.w3.org/Graphics/SVG/1.1/DTD/svg11.dtd"><svg t="1560333183465" class="icon" style="" viewBox="0 0 1024 1024" version="1.1" xmlns="http://www.w3.org/2000/svg" p-id="2257" xmlns:xlink="http://www.w3.org/1999/xlink" width="128" height="128"><defs><style type="text/css"></style></defs><path d="M885.881398 127.926207A741.291596 741.291596 0 0 1 554.570745 12.798953a79.309886 79.309886 0 0 0-42.852922-12.791917 76.751503 76.751503 0 0 0-43.492518 12.791917 746.408363 746.408363 0 0 1-331.310653 115.127254A79.949482 79.949482 0 0 0 64.000724 207.875689v367.767616c0 246.884 335.148228 447.717099 447.717099 447.717099s447.717099-199.553907 447.717099-447.717099V207.875689a81.228674 81.228674 0 0 0-73.553524-79.949482z" fill="#889aa4" p-id="2258" data-spm-anchor-id="a313x.7781069.0.i6" class=""></path><path d="M738.134756 399.114849L454.793792 681.816217a40.294539 40.294539 0 0 1-56.284435 0L285.30089 568.607751a39.015347 39.015347 0 0 1 0-56.284435 38.375751 38.375751 0 0 1 56.284435 0l85.066249 84.426653 255.838342-255.838343a40.934135 40.934135 0 0 1 56.924031 0 39.654943 39.654943 0 0 1 11.512726 28.142218 42.213326 42.213326 0 0 1-11.512726 28.781814z" fill="#ffffff" p-id="2259" data-spm-anchor-id="a313x.7781069.0.i7" class="selected"></path></svg>