<?xml version="1.0" standalone="no"?><!DOCTYPE svg PUBLIC "-//W3C//DTD SVG 1.1//EN" "http://www.w3.org/Graphics/SVG/1.1/DTD/svg11.dtd"><svg t="1560136404734" class="icon" style="" viewBox="0 0 1024 1024" version="1.1" xmlns="http://www.w3.org/2000/svg" p-id="17156" xmlns:xlink="http://www.w3.org/1999/xlink" width="32" height="32"><defs><style type="text/css"></style></defs><path d="M 681.4 440 s -4.3 -4.5 -7.3 -4.5 h -46.6 v 95.3 H 729 c 0 -4.8 -3.9 -11 -7.4 -16.2 L 681.4 440 Z" fill="#3399ff" p-id="17157"></path><path d="M 513 2.8 C 231.9 2.8 4 230.7 4 511.8 s 227.9 509 509 509 s 509 -227.9 509 -509 s -227.9 -509 -509 -509 Z M 389.1 702.5 c -26.3 0 -47.7 -21.3 -47.7 -47.7 c 0 -26.3 21.3 -47.7 47.7 -47.7 c 26.3 0 47.7 21.3 47.7 47.7 c -0.1 26.3 -21.4 47.7 -47.7 47.7 Z m 266.9 0 c -26.3 0 -47.7 -21.3 -47.7 -47.7 c 0 -26.3 21.3 -47.7 47.7 -47.7 c 26.3 0 47.7 21.3 47.7 47.7 c 0 26.3 -21.4 47.7 -47.7 47.7 Z m 104.9 -76.3 c 0 10.5 -8.6 19.1 -19.1 19.1 h -19 c -4.7 -32.8 -32.7 -58.3 -66.8 -58.3 c -34.1 0 -62.2 25.4 -66.8 58.3 H 456 c -4.7 -32.8 -32.7 -58.3 -66.8 -58.3 c -34.1 0 -62.2 25.4 -66.8 58.3 h -38 c -10.5 0 -19.1 -8.6 -19.1 -19.1 v -286 c 0 -10.5 8.6 -19.1 19.1 -19.1 h 305.1 c 10.5 0 19.1 8.6 19.1 19.1 v 57.2 h 66.7 c 14 0 19.9 8.6 28.6 19.1 l 42.6 75.9 s 14.6 20.4 14.6 38.5 v 95.3 Z" fill="#3399ff" p-id="17158"></path></svg>