<?xml version="1.0" standalone="no"?><!DOCTYPE svg PUBLIC "-//W3C//DTD SVG 1.1//EN" "http://www.w3.org/Graphics/SVG/1.1/DTD/svg11.dtd"><svg t="1560136370044" class="icon" style="" viewBox="0 0 1024 1024" version="1.1" xmlns="http://www.w3.org/2000/svg" p-id="15373" xmlns:xlink="http://www.w3.org/1999/xlink" width="32" height="32"><defs><style type="text/css"></style></defs><path d="M0.078 511.285a511.285 511.285 0 1 0 1022.57 0 511.285 511.285 0 1 0-1022.57 0z" fill="#00A085" p-id="15374"></path><path d="M1022.663 508.433l-270.247-270.25-118.177 225.131-58.515-58.973-12.712 11.909-176.12-176.12-59.318 12.595 13.627 372.162-116.23 109.358 288.454 288.454c280.438-1.145 512.781-232.344 509.118-514.156l0.12-0.11z" fill="#048C75" p-id="15375"></path><path d="M466.826 455.98h88.054v111.992h-88.054z" fill="#E6E6E6" p-id="15376"></path><path d="M461.786 394.492h99.053c8.587 0 15.572 6.985 15.572 15.572v32.063c0 8.587-6.985 15.572-15.572 15.572h-99.053c-8.587 0-15.572-6.985-15.572-15.572v-32.063c-0.002-8.587 6.983-15.572 15.572-15.572z" fill="#FFD630" p-id="15377"></path><path d="M464.762 402.853c2.405 0 4.467 1.945 4.467 4.466v38.477a4.47 4.47 0 0 1-4.467 4.467 4.47 4.47 0 0 1-4.466-4.467V407.32c0-2.407 1.95-4.466 4.466-4.466z m93.214 0c2.405 0 4.467 1.945 4.467 4.466v38.477a4.47 4.47 0 0 1-4.467 4.467 4.47 4.47 0 0 1-4.466-4.467V407.32c0-2.407 1.947-4.466 4.466-4.466z m-18.666 0c2.405 0 4.466 1.945 4.466 4.466v38.477a4.47 4.47 0 0 1-4.466 4.467 4.47 4.47 0 0 1-4.466-4.467V407.32a4.472 4.472 0 0 1 4.466-4.466z m-18.666 0c2.405 0 4.466 1.945 4.466 4.466v38.477a4.47 4.47 0 0 1-4.466 4.467 4.47 4.47 0 0 1-4.467-4.467V407.32a4.472 4.472 0 0 1 4.467-4.466z m-18.665 0c2.405 0 4.467 1.945 4.467 4.466v38.477a4.47 4.47 0 0 1-4.467 4.467 4.47 4.47 0 0 1-4.466-4.467V407.32c0-2.407 1.947-4.466 4.466-4.466z m-18.664 0c2.405 0 4.466 1.945 4.466 4.466v38.477a4.47 4.47 0 0 1-4.466 4.467 4.47 4.47 0 0 1-4.466-4.467V407.32c0-2.407 1.945-4.466 4.466-4.466z" fill="#D6A71C" p-id="15378"></path><path d="M408.54 470.987h204.746c24.85 0 45.119 11.107 45.119 24.85v84.968c0 13.627-20.268 24.85-45.119 24.85H408.54c-24.85 0-45.119-11.107-45.119-24.85v-84.968c0-13.629 20.268-24.85 45.119-24.85z" fill="#CCCCCC" p-id="15379"></path><path d="M282.002 234.061h91.267c10.193 0 18.55 8.36 18.55 18.55 0 10.194-8.36 18.551-18.55 18.551h-91.267c-10.193 0-18.55-8.36-18.55-18.55 0-10.19 8.36-18.55 18.55-18.55z" fill="#FFD630" p-id="15380"></path><path d="M283.604 260.168h88.055v70.652h-88.055z" fill="#E84F4F" p-id="15381"></path><path d="M327.578 260.17h44.089v70.654h-44.089V260.17z" fill="#D14747" p-id="15382"></path><path d="M391.819 252.612c0 10.193-8.36 18.55-18.55 18.55h-91.267c-10.193 0-18.55-8.36-18.55-18.55h128.367z" fill="#F5BE18" p-id="15383"></path><path d="M290.02 320.288h75.233c16.605 0 28.97 13.74 30.231 30.231l27.711 336.78H231.96l27.71-336.78c1.375-16.605 13.627-30.231 30.232-30.231h0.118z" fill="#EDEDED" p-id="15384"></path><path d="M327.578 320.288h37.675c16.605 0 28.97 13.74 30.231 30.231l27.711 336.78h-95.617V320.287z" fill="#D4D4D4" p-id="15385"></path><path d="M240.892 684.436h173.37c14.2 0 25.766 12.482 25.766 27.826 0 15.345-11.565 27.827-25.765 27.827h-173.37c-14.2 0-25.766-12.482-25.766-27.827 0-15.344 11.565-27.826 25.765-27.826z" fill="#E84F4F" p-id="15386"></path><path d="M440.028 712.26c0 15.345-11.565 27.827-25.765 27.827h-173.37c-14.2 0-25.766-12.482-25.766-27.827h224.9z" fill="#D14747" p-id="15387"></path><path d="M649.47 234.061h91.266c10.193 0 18.55 8.36 18.55 18.55 0 10.194-8.359 18.551-18.55 18.551H649.47c-10.193 0-18.55-8.36-18.55-18.55 0-10.19 8.36-18.55 18.55-18.55z" fill="#FFD630" p-id="15388"></path><path d="M651.068 260.168h88.054v70.652h-88.054z" fill="#E84F4F" p-id="15389"></path><path d="M695.16 260.17h44.088v70.654H695.16V260.17z" fill="#D14747" p-id="15390"></path><path d="M759.4 252.612c0 10.193-8.359 18.55-18.55 18.55h-91.266c-10.193 0-18.55-8.36-18.55-18.55H759.4z" fill="#F5BE18" p-id="15391"></path><path d="M657.486 320.288h75.233c16.604 0 28.97 13.74 30.231 30.231l27.711 336.78H599.426l27.71-336.78c1.375-16.605 13.627-30.231 30.232-30.231h0.118z" fill="#EDEDED" p-id="15392"></path><path d="M695.16 320.288h37.674c16.605 0 28.972 13.74 30.232 30.231l27.71 336.78h-95.618V320.287h0.002z" fill="#D4D4D4" p-id="15393"></path><path d="M608.476 684.436h173.37c14.2 0 25.766 12.482 25.766 27.826 0 15.345-11.566 27.827-25.766 27.827h-173.37c-14.2 0-25.765-12.482-25.765-27.827 0-15.344 11.563-27.826 25.765-27.826z" fill="#E84F4F" p-id="15394"></path><path d="M807.498 712.26c0 15.345-11.566 27.827-25.766 27.827h-173.37c-14.2 0-25.765-12.482-25.765-27.827h224.9z" fill="#D14747" p-id="15395"></path><path d="M248.565 485.185h525.493l8.587 104.549H239.978l8.587-104.55z" fill="#E84F4F" p-id="15396"></path><path d="M616.148 485.185H511.37v104.549h96.188l8.591-104.55z m-209.558 0h-79.014v104.549h87.601l-8.587-104.55z" fill="#D14747" p-id="15397"></path></svg>