<?xml version="1.0" standalone="no"?><!DOCTYPE svg PUBLIC "-//W3C//DTD SVG 1.1//EN" "http://www.w3.org/Graphics/SVG/1.1/DTD/svg11.dtd"><svg t="1560136883997" class="icon" style="" viewBox="0 0 1024 1024" version="1.1" xmlns="http://www.w3.org/2000/svg" p-id="2123" xmlns:xlink="http://www.w3.org/1999/xlink" width="32" height="32"><defs><style type="text/css"></style></defs><path d="M510.976 330.752c-96.256 0-174.08 77.824-174.08 174.08s77.824 174.08 174.08 174.08 174.08-77.824 174.08-174.08-77.824-174.08-174.08-174.08z m0 285.696c-61.44 0-110.592-49.152-110.592-110.592 0-61.44 49.152-110.592 110.592-110.592 61.44 0 110.592 49.152 110.592 110.592 0 60.416-50.176 110.592-110.592 110.592z m0 0" fill="#3D7DF6" p-id="2124"></path><path d="M898.048 366.592h-43.008l-2.048-8.192 30.72-27.648c32.768-32.768 32.768-87.04 0-119.808l-76.8-76.8c-32.768-32.768-87.04-32.768-119.808 0l-28.672 26.624h-8.192v-43.008c0-22.528-9.216-44.032-24.576-60.416-16.384-16.384-37.888-24.576-60.416-24.576H456.704c-47.104 0-84.992 37.888-84.992 84.992v43.008h-8.192L335.872 133.12c-32.768-32.768-87.04-32.768-119.808 0l-76.8 76.8c-16.384 15.36-25.6 37.888-25.6 60.416s9.216 44.032 24.576 60.416l27.648 27.648v8.192H122.88c-22.528 0-44.032 9.216-60.416 24.576-16.384 16.384-24.576 37.888-24.576 60.416v107.52c0 47.104 37.888 84.992 84.992 84.992h43.008l3.072 8.192-28.672 28.672c-32.768 32.768-32.768 87.04 0 119.808l76.8 76.8c32.768 32.768 87.04 32.768 119.808 0l28.672-28.672 8.192 3.072v43.008c0 47.104 37.888 84.992 84.992 84.992h108.544c22.528 0 44.032-9.216 60.416-24.576 16.384-16.384 24.576-37.888 24.576-60.416v-43.008l8.192-3.072 28.672 28.672c32.768 32.768 87.04 32.768 119.808 0l76.8-76.8c32.768-32.768 32.768-87.04 0-119.808l-28.672-28.672 3.072-7.168h43.008c47.104 0 84.992-37.888 84.992-84.992V451.584c0-23.552-10.24-46.08-26.624-61.44-17.408-16.384-39.936-24.576-63.488-23.552z m21.504 192.512c0 11.264-9.216 20.48-20.48 20.48h-84.992l-7.168 22.528c-5.12 14.336-11.264 28.672-17.408 43.008l-10.24 20.48 60.416 60.416c8.192 8.192 8.192 21.504 0 29.696l-77.824 76.8c-8.192 8.192-21.504 8.192-29.696 0l-60.416-61.44-20.48 10.24c-13.312 7.168-27.648 13.312-43.008 17.408l-22.528 7.168V890.88c0 11.264-9.216 20.48-20.48 20.48H456.704c-11.264 0-20.48-9.216-20.48-20.48v-84.992l-22.528-7.168c-14.336-5.12-28.672-11.264-43.008-17.408l-20.48-10.24-61.44 62.464c-8.192 8.192-21.504 8.192-29.696 0l-75.776-76.8c-8.192-8.192-8.192-21.504 0-29.696l61.44-60.416-10.24-20.48c-7.168-13.312-13.312-27.648-17.408-43.008l-8.192-21.504H122.88c-11.264 0-20.48-9.216-20.48-20.48V451.584c0-11.264 9.216-20.48 20.48-20.48h84.992l7.168-22.528c5.12-14.336 11.264-28.672 17.408-43.008l10.24-20.48-60.416-61.44c-8.192-8.192-8.192-21.504 0-29.696l76.8-76.8c8.192-8.192 21.504-8.192 29.696 0l60.416 61.44 20.48-10.24c13.312-7.168 27.648-13.312 43.008-17.408l22.528-8.192v-84.992c0-11.264 9.216-20.48 20.48-20.48H563.2c11.264 0 20.48 9.216 20.48 20.48v84.992l22.528 7.168c14.336 5.12 28.672 11.264 43.008 17.408l20.48 10.24 60.416-60.416c8.192-8.192 21.504-8.192 29.696 0l76.8 76.8c8.192 8.192 8.192 21.504 0 29.696l-60.416 61.44 10.24 20.48c7.168 13.312 13.312 27.648 17.408 43.008l7.168 22.528h84.992c11.264 0 20.48 9.216 20.48 20.48l3.072 107.52z m0 0" fill="#3D7DF6" p-id="2125"></path></svg>