<?xml version="1.0" standalone="no"?><!DOCTYPE svg PUBLIC "-//W3C//DTD SVG 1.1//EN" "http://www.w3.org/Graphics/SVG/1.1/DTD/svg11.dtd"><svg t="1562391461427" class="icon" viewBox="0 0 1024 1024" version="1.1" xmlns="http://www.w3.org/2000/svg" p-id="13652" xmlns:xlink="http://www.w3.org/1999/xlink" width="128" height="128"><defs><style type="text/css"></style></defs><path d="M115.2 648.533333h-6.826667c-17.066667-0.853333-30.72-3.413333-41.813333-8.533333l-10.24-5.12c-9.386667-5.12-17.066667-11.093333-23.893333-17.066667l7.68-14.506666 104.106666 26.453333-0.853333 17.066667c-9.386667 1.706667-18.773333 1.706667-28.16 1.706666zM910.506667 657.066667c-8.533333 0-17.92-0.853333-28.16-1.706667l-0.853334-17.066667 104.106667-26.453333 7.68 14.506667c-6.826667 5.973333-14.506667 11.093333-23.893333 17.066666l-10.24 5.12c-11.093333 5.12-24.746667 8.533333-41.813334 8.533334h-6.826666z" fill="#979797" p-id="13653"></path><path d="M1005.226667 490.666667c-2.56-1.706667-5.973333-4.266667-9.386667-6.826667-10.24-7.68-21.333333-13.653333-33.28-20.48-30.72-16.213333-60.586667-25.6-88.746667-28.16-36.693333-67.413333-113.493333-121.173333-195.413333-127.146667l-17.92-0.853333c-13.653333-0.853333-28.16-2.56-43.52-3.413333-11.946667-0.853333-23.893333-1.706667-34.986667-2.56-27.306667-1.706667-49.493333-2.56-65.706666-2.56-16.213333 0-38.4 0.853333-66.56 2.56-11.093333 0.853333-23.04 1.706667-34.986667 2.56-14.506667 0.853333-29.013333 2.56-43.52 3.413333l-17.92 1.706667c-87.04 5.973333-162.133333 58.026667-197.12 127.146666-29.013333 1.706667-60.586667 11.093333-93.866667 29.013334-11.093333 5.973333-23.04 12.8-33.28 20.48-3.413333 2.56-6.826667 4.266667-9.386666 6.826666l-2.56 0.853334v101.546666l0.853333 12.8 12.8-5.973333c11.093333-4.266667 22.186667-8.533333 32.426667-12.8 8.533333-3.413333 16.213333-5.973333 23.04-8.533333 20.48-6.826667 35.84-10.24 47.786666-11.093334l-16.213333 85.333334 17.066667 3.413333 11.093333-60.586667 15.36 104.106667 17.066667-2.56-10.24-68.266667c38.4 63.146667 107.52 104.96 186.026666 104.96h322.56c103.253333 0 189.44-70.826667 212.48-166.4 11.093333 0 27.306667 4.266667 48.64 11.093334 6.826667 2.56 15.36 5.12 23.04 8.533333 10.24 4.266667 21.333333 8.533333 32.426667 13.653333l13.653333 5.973334V493.226667l-1.706666-2.56zM81.066667 564.053333c-7.68 2.56-15.36 5.12-23.893334 8.533334-7.68 2.56-15.36 5.973333-23.04 9.386666v-80.213333c1.706667-0.853333 3.413333-2.56 5.12-3.413333 10.24-6.826667 20.48-13.653333 31.573334-18.773334 27.306667-14.506667 53.76-23.04 77.653333-26.453333-7.68 20.48-11.946667 41.813333-11.946667 64v4.266667h-0.853333l1.706667 10.24c0 4.266667 0.853333 8.533333 1.706666 13.653333l-0.853333 5.973333c-14.506667 0.853333-32.426667 4.266667-57.173333 12.8z m596.48 145.92H354.986667C248.32 709.973333 162.133333 622.933333 162.133333 517.12v-5.973333l5.973334-31.573334h-0.853334c19.626667-75.946667 97.28-138.24 189.44-145.066666l17.92-1.706667c13.653333-0.853333 28.16-2.56 42.666667-3.413333 11.946667-0.853333 23.893333-1.706667 34.986667-2.56 27.306667-1.706667 49.493333-2.56 64.853333-2.56 15.36 0 37.546667 0.853333 64.853333 2.56 11.093333 0.853333 23.04 1.706667 34.986667 2.56 14.506667 0.853333 29.013333 2.56 42.666667 3.413333l17.92 1.706667c77.653333 5.973333 151.893333 61.44 180.906666 127.146666 0.853333 2.56 3.413333 11.946667 5.12 15.36v0.853334c2.56 6.826667 3.413333 12.8 5.12 17.92 0.853333 2.56 0.853333 4.266667 1.706667 6.826666 0.853333 5.973333 0.853333 11.093333 0.853333 17.066667-0.853333 104.106667-87.04 190.293333-193.706666 190.293333z m314.026666-128c-7.68-3.413333-15.36-6.826667-23.04-9.386666-8.533333-3.413333-16.213333-5.973333-23.893333-8.533334-21.333333-6.826667-37.546667-11.093333-51.2-11.946666 1.706667-11.093333 2.56-22.186667 2.56-33.28 0-21.333333-5.12-43.52-13.653333-64 23.04 3.413333 46.933333 11.946667 72.533333 25.6 11.093333 5.973333 21.333333 11.946667 31.573333 18.773333 1.706667 0.853333 3.413333 2.56 5.12 3.413333v79.36z" fill="#474647" p-id="13654"></path><path d="M821.76 436.906667l-3.413333-7.68-1.706667 0.853333c-33.28-43.52-87.04-75.093333-144.213333-79.36l-17.066667-1.706667c-13.653333-0.853333-27.306667-1.706667-41.813333-3.413333-10.24-0.853333-19.626667-1.706667-28.16-1.706667-24.746667-1.706667-43.52-2.56-58.026667-2.56l-4.266667-2.56-2.56 2.56-2.56-5.12-9.386666 5.12c-13.653333 0-32.426667 0.853333-54.613334 2.56-9.386667 0.853333-18.773333 0.853333-28.16 1.706667-14.506667 0.853333-28.16 1.706667-41.813333 3.413333l-17.066667 1.706667c-98.986667 6.826667-179.2 82.773333-179.2 169.813333 0 98.986667 80.213333 179.2 179.2 179.2h304.64c98.986667 0 179.2-80.213333 179.2-178.346666 0-29.013333-11.093333-58.88-29.013333-84.48zM366.933333 358.4l17.066667-1.706667c13.653333-0.853333 27.306667-1.706667 41.813333-3.413333 10.24-0.853333 19.626667-1.706667 28.16-1.706667 14.506667-0.853333 27.306667-1.706667 38.4-1.706666l-4.266666 2.56-14.506667 8.533333-29.866667 17.066667-29.866666 17.066666-14.506667 8.533334-14.506667 8.533333-29.866666 17.066667 2.56 5.12-2.56-5.12-14.506667 8.533333-14.506667 8.533333-14.506666 8.533334-14.506667 8.533333H290.133333l-56.32-40.106667c32.426667-35.84 80.213333-60.586667 133.12-64.853333z m304.64 332.8H366.933333c-93.866667 0-170.666667-76.8-170.666666-170.666667 0-33.28 11.946667-64 33.28-90.453333l60.586666 43.52 9.386667-5.12 14.506667-8.533333 14.506666-8.533334 14.506667-8.533333 29.866667-17.066667-2.56-5.12 2.56 5.12 14.506666-8.533333 14.506667-8.533333 14.506667-8.533334 29.866666-17.066666 29.866667-17.066667 14.506667-8.533333 14.506666-8.533334 0.853334 0.853334 0.853333 1.706666 3.413333-1.706666h12.8l8.533334 5.12 14.506666 8.533333 1.706667-2.56-1.706667 2.56 14.506667 8.533333 4.266667-7.68-14.506667-8.533333-10.24-5.973333c11.946667 0 25.6 0.853333 41.813333 1.706666 9.386667 0.853333 18.773333 0.853333 28.16 1.706667 14.506667 0.853333 28.16 1.706667 41.813334 3.413333l17.066666 1.706667c53.76 4.266667 104.96 34.133333 137.386667 74.24l-5.12 2.56 3.413333 7.68 7.68-3.413333c17.92 24.746667 28.16 52.906667 28.16 81.066666 1.706667 94.72-75.093333 170.666667-168.96 170.666667z" fill="#979797" p-id="13655"></path><path d="M576.853333 380.586667l15.36 8.533333 0.853334-2.56-0.853334 2.56 14.506667 8.533333 3.413333-5.973333-3.413333 5.973333 29.866667 17.066667 4.266666-7.68-15.36-8.533333-29.013333-17.066667-15.36-8.533333-0.853333 2.56 0.853333-2.56-14.506667-8.533334-4.266666 7.68 14.506666 8.533334zM806.4 443.733333l-3.413333-7.68-16.213334 6.826667-30.72 13.653333 3.413334 7.68zM636.586667 414.72l14.506666 8.533333 14.506667 8.533334 1.706667-2.56-1.706667 2.56 15.36 8.533333 4.266667-7.68-15.36-8.533333-14.506667-8.533334-1.706667 2.56 1.706667-2.56-14.506667-8.533333z" fill="#979797" p-id="13656"></path><path d="M685.226667 432.64l-4.266667 7.68 14.506667 8.533333 14.506666 8.533334 1.706667-2.56-1.706667 2.56 15.36 8.533333 14.506667 8.533333 2.56-5.12 1.706667 1.706667 15.36-6.826667-3.413334-7.68-15.36 6.826667 0.853334 1.706667-11.946667-6.826667-1.706667 2.56 1.706667-2.56-15.36-8.533333-14.506667-8.533334-1.706666 2.56 1.706666-2.56zM636.586667 465.92l4.266666-7.68-15.36-8.533333-29.013333-17.066667-15.36-8.533333-0.853333 2.56 0.853333-2.56-14.506667-8.533334-4.266666 7.68 14.506666 8.533334 15.36 8.533333 0.853334-2.56-0.853334 2.56 14.506667 8.533333 3.413333-5.973333-3.413333 5.973333z" fill="#979797" p-id="13657"></path><path d="M562.346667 423.253333l4.266666-7.68-14.506666-8.533333-15.36-8.533333-0.853334 2.56 0.853334-2.56-14.506667-8.533334-1.706667 2.56-2.56-5.12-29.866666 17.066667-14.506667 7.68-29.866667 17.066667-29.866666 16.213333-14.506667 8.533333-15.36 8.533334-29.866667 17.066666 3.413334 5.12-3.413334-5.12-14.506666 7.68-15.36 8.533334-14.506667 8.533333-15.36 8.533333-4.266667 1.706667-60.586666-43.52-5.12 7.68 65.706666 46.08 8.533334-5.12 15.36-7.68 14.506666-8.533333 15.36-8.533334 29.866667-16.213333-3.413333-5.973333 3.413333 5.973333 14.506667-8.533333 14.506666-8.533334 15.36-8.533333 29.866667-16.213333 29.866667-17.066667 14.506666-8.533333 15.36-7.68-3.413333-5.973334 3.413333 5.973334 10.24-6.826667v0.853333l14.506667 8.533334 15.36 8.533333 0.853333-2.56-0.853333 2.56zM685.226667 483.84l-15.36-8.533333-14.506667-8.533334-1.706667 2.56 1.706667-2.56-14.506667-8.533333-4.266666 7.68 14.506666 8.533333 14.506667 8.533334 1.706667-2.56-1.706667 2.56 15.36 8.533333z" fill="#979797" p-id="13658"></path><path d="M740.693333 514.56l0.853334 1.706667-11.946667-6.826667-1.706667 2.56 1.706667-2.56-15.36-8.533333-14.506667-8.533334-1.706666 2.56 1.706666-2.56-14.506666-8.533333-4.266667 7.68 14.506667 8.533333 14.506666 8.533334 1.706667-2.56-1.706667 2.56 15.36 8.533333 14.506667 8.533333 2.56-5.12 1.706667 1.706667 15.36-6.826667-3.413334-7.68zM786.773333 494.08l-30.72 13.653333 3.413334 7.68 46.933333-20.48-3.413333-7.68z" fill="#979797" p-id="13659"></path><path d="M802.781867 486.8096l15.598933-6.929067 3.456 7.799467-15.598933 6.929067z" fill="#979797" p-id="13660"></path><path d="M739.84 610.986667l-44.373333-25.6 2.56-5.12-2.56 5.12-44.373334-25.6 2.56-5.12-2.56 5.12-44.373333-25.6 2.56-4.266667-2.56 4.266667-29.866667-17.066667-14.506666-8.533333 4.266666-7.68 14.506667 8.533333-0.853333 2.56 0.853333-2.56 14.506667 8.533333 29.866666 17.066667-2.56 5.12 2.56-4.266667 44.373334 25.6-2.56 5.12 2.56-5.12 44.373333 25.6-2.56 5.12 2.56-5.12 26.453333 15.36-0.853333-1.706666 15.36-6.826667 2.56 5.973333-2.56-5.973333 15.36-6.826667 15.36-6.826666 15.36-6.826667 15.36-6.826667 3.413333 7.68-13.653333 5.973334-15.36 6.826666-15.36 6.826667-31.573333 13.653333-1.706667-1.706666-2.56 5.12zM290.133333 610.133333l-10.24-6.826666 5.12-6.826667 5.12 4.266667 19.626667-11.093334 14.506667-8.533333 14.506666-8.533333 14.506667-8.533334v0.853334-0.853334l14.506667-8.533333 14.506666-8.533333 14.506667-8.533334 14.506667-8.533333 14.506666-8.533333 14.506667-8.533334 4.266667 7.68-29.866667 17.066667-14.506667 8.533333-14.506666 8.533334-14.506667 8.533333-12.8 8.533333-14.506667 8.533334-14.506666 8.533333-14.506667 8.533333-24.746667 12.8z m-10.24-6.826666l-28.16-19.626667 0.853334-0.853333-0.853334 0.853333-28.16-19.626667 5.12-6.826666 13.653334 10.24-0.853334 0.853333 0.853334-0.853333 41.813333 29.866666-4.266667 5.973334z m168.106667-81.066667l-4.266667-7.68 29.866667-17.066667 4.266667 7.68-29.866667 17.066667z m114.346667-13.653333l-14.506667-8.533334 1.706667-2.56-1.706667 2.56-14.506667-8.533333-14.506666-8.533333v-0.853334l-11.093334 5.973334-3.413333-5.973334 3.413333 5.973334-14.506666 8.533333-14.506667 8.533333-4.266667-7.68 14.506667-8.533333 29.866667-17.066667 1.706666 5.973334 1.706667-2.56 14.506667 8.533333-0.853334 2.56 1.706667-2.56 14.506667 8.533333 14.506666 8.533334-4.266666 7.68z" fill="#979797" p-id="13661"></path><path d="M739.84 653.653333l-44.373333-25.6 2.56-5.12-2.56 5.12-44.373334-25.6 2.56-5.12-2.56 5.12-44.373333-25.6 2.56-4.266666-2.56 4.266666-44.373333-25.6 4.266666-7.68 14.506667 8.533334-2.56 5.12 2.56-5.12 44.373333 25.6-2.56 5.12 2.56-4.266667 44.373334 25.6-2.56 5.12 2.56-5.12 44.373333 25.6-2.56 5.12 2.56-5.12 26.453333 15.36-0.853333-1.706667 15.36-6.826666 2.56 5.973333-2.56-5.973333 15.36-6.826667 15.36-6.826667 15.36-6.826666 15.36-6.826667 3.413333 7.68-13.653333 5.973333-15.36 6.826667-15.36 6.826667-31.573333 13.653333-1.706667-1.706667-2.56 5.12zM290.133333 652.8l-10.24-6.826667 5.12-6.826666 5.12 4.266666 19.626667-11.093333 14.506667-8.533333 14.506666-8.533334 14.506667-8.533333v0.853333-0.853333l14.506667-8.533333 14.506666-8.533334 14.506667-8.533333 14.506667-8.533333 29.866666-17.066667 4.266667 7.68-29.866667 17.066667-14.506666 8.533333-14.506667 8.533333-14.506667 8.533334-13.653333 8.533333-14.506667 8.533333-14.506666 8.533334-14.506667 8.533333-24.746667 12.8z m-10.24-6.826667l-28.16-19.626666 0.853334-0.853334-0.853334 0.853334-28.16-19.626667 5.12-6.826667 13.653334 10.24-0.853334 0.853334 0.853334-0.853334 41.813333 29.866667-4.266667 5.973333z m168.106667-81.066666l-4.266667-7.68 14.506667-8.533334 14.506667-8.533333 4.266666 7.68-14.506666 8.533333-14.506667 8.533334z m114.346667-13.653334l-14.506667-8.533333 2.56-5.12-2.56 5.12-29.866667-17.066667v-0.853333l-11.093333 5.973333-3.413333-6.826666 14.506666-8.533334 2.56 5.12 1.706667-2.56 44.373333 25.6-4.266666 7.68z m-84.48-3.413333l-4.266667-7.68 14.506667-8.533333 14.506666-8.533334 4.266667 7.68-14.506667 8.533334-14.506666 8.533333z" fill="#979797" p-id="13662"></path><path d="M450.56 698.88l-4.266667-6.826667 73.386667-40.106666 5.973333 3.413333-4.266666 6.826667 4.266666-6.826667 29.866667 17.066667-3.413333 5.12 3.413333-5.12 29.013333 17.066666-4.266666 7.68-44.373334-25.6 3.413334-5.12-3.413334 5.12-14.506666-8.533333-1.706667-0.853333z" fill="#979797" p-id="13663"></path><path d="M669.866667 698.026667l-11.946667-6.826667 3.413333-5.12-3.413333 5.12-44.373333-25.6 2.56-5.12-2.56 5.12-44.373334-25.6 4.266667-7.68 14.506667 8.533333-2.56 5.12 2.56-5.12 44.373333 25.6-2.56 5.12 2.56-5.12 41.813333 23.893334-4.266666 7.68z m-304.64-0.853334l-4.266667-7.68 14.506667-8.533333 14.506666-8.533333 4.266667 7.68-14.506667 8.533333-14.506666 8.533333z m29.866666-17.066666l-4.266666-7.68 14.506666-8.533334 14.506667-8.533333 4.266667 7.68-14.506667 8.533333-14.506667 8.533334z m29.866667-16.213334l-4.266667-7.68 14.506667-8.533333 14.506667-8.533333 4.266666 7.68-14.506666 8.533333-14.506667 8.533333z m29.866667-17.066666l-4.266667-6.826667 14.506667-8.533333 14.506666-8.533334 14.506667-8.533333 14.506667-8.533333 9.386666-5.12 9.386667 5.12-2.56 5.12 2.56-5.12 44.373333 25.6-4.266666 7.68-14.506667-8.533334 2.56-5.12-0.853333 5.12-34.986667-20.48-5.12 3.413334-14.506667 8.533333-14.506666 8.533333-1.706667-2.56 1.706667 2.56-14.506667 8.533334-16.213333 7.68z" fill="#979797" p-id="13664"></path></svg>