<?xml version="1.0" standalone="no"?><!DOCTYPE svg PUBLIC "-//W3C//DTD SVG 1.1//EN" "http://www.w3.org/Graphics/SVG/1.1/DTD/svg11.dtd"><svg t="1562382836327" class="icon" viewBox="0 0 1024 1024" version="1.1" xmlns="http://www.w3.org/2000/svg" p-id="4210" xmlns:xlink="http://www.w3.org/1999/xlink" width="128" height="128"><defs><style type="text/css"></style></defs><path d="M512 512m-512 0a512 512 0 1 0 1024 0 512 512 0 1 0-1024 0Z" fill="#F5C51D" p-id="4211"></path><path d="M728.35 378.31H804v75.61h-75.65z m-508.31 0h75.61v75.61H220z m185.83 147.58l61.95 37.35L512 487.63l46 75.61 59.21-40.09-40.05-69.23h66.47v-75.61h-93.82V297.7H474.2v80.61h-93.83v75.61h67c-13.38 22.56-41.46 72-41.46 72z m0 0" fill="" p-id="4212"></path><path d="M511.55 658.89c-131.18 1.82-205-131.18-205-131.18h-73.8c7.29 20 72 198.59 287.87 198.59 207.69 0 270.55-198.59 270.55-198.59h-76.48s-71.07 129.34-203.14 131.18z m0 0" fill="" p-id="4213"></path></svg>