<?xml version="1.0" standalone="no"?><!DOCTYPE svg PUBLIC "-//W3C//DTD SVG 1.1//EN" "http://www.w3.org/Graphics/SVG/1.1/DTD/svg11.dtd"><svg t="1562322026120" class="icon" viewBox="0 0 1024 1024" version="1.1" xmlns="http://www.w3.org/2000/svg" p-id="4698" xmlns:xlink="http://www.w3.org/1999/xlink" width="128" height="128"><defs><style type="text/css"></style></defs><path d="M513.937119 78.511121c-231.92621 0-420.61671 188.6905-420.61671 420.61671 0 231.92621 188.6905 420.615687 420.61671 420.615687s420.61671-188.6905 420.61671-420.615687c-0.001023-231.92621-188.691523-420.61671-420.61671-420.61671z m0 37.808095c211.083509 0 382.807592 171.725106 382.807592 382.808615 0 90.127693-31.383778 173.017542-83.693144 238.49072-65.968457-65.965387-177.525206-106.162902-299.114448-106.162902-121.210619 0-233.147014 40.23947-299.140031 106.129133-52.29504-65.468061-83.667561-148.34563-83.667562-238.457974-0.001023-211.082486 171.724083-382.807592 382.807593-382.807592z m0 765.616208c-107.413382 0-204.569142-44.527123-274.156011-116.018364 58.592466-59.965743 161.580049-96.652294 274.156011-96.652294 112.962771 0 215.576847 36.670178 274.106891 96.702436-69.583798 71.461565-166.721139 115.968222-274.106891 115.968222z" fill="#4DC2DA" p-id="4699"></path><path d="M513.937119 574.74402c80.784908 0 146.506748-65.720817 146.506748-146.506749s-65.721841-146.506748-146.506748-146.506748c-80.785931 0-146.506748 65.720817-146.506749 146.506748s65.720817 146.506748 146.506749 146.506749z m0-255.205403c59.934021 0 108.698654 48.764634 108.698654 108.698654s-48.764634 108.698654-108.698654 108.698654-108.698654-48.764634-108.698655-108.698654 48.764634-108.698654 108.698655-108.698654z" fill="#4DC2DA" p-id="4700"></path></svg>