<?xml version="1.0" standalone="no"?><!DOCTYPE svg PUBLIC "-//W3C//DTD SVG 1.1//EN" "http://www.w3.org/Graphics/SVG/1.1/DTD/svg11.dtd"><svg t="1562321962877" class="icon" viewBox="0 0 1024 1024" version="1.1" xmlns="http://www.w3.org/2000/svg" p-id="3040" xmlns:xlink="http://www.w3.org/1999/xlink" width="128" height="128"><defs><style type="text/css"></style></defs><path d="M512 512m-510.355 0a510.355 510.355 0 1 0 1020.71 0 510.355 510.355 0 1 0-1020.71 0Z" fill="#FFFFFF" p-id="3041"></path><path d="M336.544 439.149V101.666c-108.53 46.163-195.059 134.351-239.047 243.875L336.54 584.328l0.004-145.179z m0 0" fill="#AFE164" p-id="3042"></path><path d="M438.853 336.946L677.896 98.159c-51.478-20.694-107.572-32.154-166.373-32.154-62.155 0-121.276 12.735-174.979 35.661v337.483l102.309-102.203z m0 0" fill="#D7E664" p-id="3043"></path><path d="M922.038 336.946H584.192l102.309 102.203 239.043 238.782c20.716-51.418 32.188-107.453 32.188-166.19 0-62.088-12.749-121.146-35.694-174.795z m0 0" fill="#FFAA64" p-id="3044"></path><path d="M686.501 584.333v337.483c108.521-46.169 195.054-134.357 239.038-243.88L686.501 439.149v145.184z m0 0" fill="#FF6469" p-id="3045"></path><path d="M584.192 686.532L345.144 925.318c51.478 20.694 107.572 32.154 166.379 32.154 62.149 0 121.27-12.735 174.978-35.655V584.333L584.192 686.532z m0 0" fill="#C3B4FA" p-id="3046"></path><path d="M438.853 686.532H101.008c46.213 108.405 134.495 194.845 244.137 238.782l239.044-238.782H438.853z m0 0" fill="#7DD2F0" p-id="3047"></path><path d="M336.544 584.333L97.497 345.541c-20.716 51.423-32.188 107.457-32.188 166.2 0 62.083 12.749 121.14 35.699 174.791h337.846l-102.31-102.199z m0 0" fill="#7DE6C3" p-id="3048"></path><path d="M584.192 336.946h337.846C875.82 228.536 787.537 142.095 677.896 98.159L438.853 336.946h145.339z m0 0" fill="#FFE669" p-id="3049"></path></svg>