<?xml version="1.0" standalone="no"?><!DOCTYPE svg PUBLIC "-//W3C//DTD SVG 1.1//EN" "http://www.w3.org/Graphics/SVG/1.1/DTD/svg11.dtd"><svg t="1560135902514" class="icon" style="" viewBox="0 0 1024 1024" version="1.1" xmlns="http://www.w3.org/2000/svg" p-id="2736" xmlns:xlink="http://www.w3.org/1999/xlink" width="32" height="32"><defs><style type="text/css"></style></defs><path d="M512 512m-512 0a512 512 0 1 0 1024 0 512 512 0 1 0-1024 0Z" fill="#59ACDD" p-id="2737"></path><path d="M784.14019 710.460952c9.264762 9.728 9.142857 22.576762-0.243809 32.134096-9.386667 9.581714-23.356952 7.875048-32.597333-1.852953l-71.68-75.337143a140.434286 140.434286 0 0 1-74.849524 21.699048c-81.359238 0-147.382857-69.973333-147.382857-155.818667s66.023619-155.818667 147.382857-155.818666c81.359238 0 147.358476 69.973333 147.358476 155.794285a160.304762 160.304762 0 0 1-38.595048 104.984381l70.607238 74.215619z m-284.525714-179.2c0 61.635048 47.055238 111.786667 105.155048 111.786667s105.130667-50.151619 105.130666-111.762286c0-61.610667-47.055238-111.762286-105.130666-111.762285-58.09981 0-105.155048 50.151619-105.155048 111.762285zM266.24 266.24h475.818667a27.306667 27.306667 0 0 1 0 54.613333H266.24a27.306667 27.306667 0 1 1 0-54.613333z m0 216.064h122.88a27.306667 27.306667 0 0 1 0 54.613333h-122.88a27.306667 27.306667 0 0 1 0-54.613333z m0 216.064h191.146667a27.306667 27.306667 0 0 1 0 54.613333h-191.146667a27.306667 27.306667 0 0 1 0-54.613333z" fill="#FFFFFF" p-id="2738"></path></svg>