<?xml version="1.0" standalone="no"?><!DOCTYPE svg PUBLIC "-//W3C//DTD SVG 1.1//EN" "http://www.w3.org/Graphics/SVG/1.1/DTD/svg11.dtd"><svg t="1561080006231" class="icon" viewBox="0 0 1024 1024" version="1.1" xmlns="http://www.w3.org/2000/svg" p-id="16985" xmlns:xlink="http://www.w3.org/1999/xlink" width="128" height="128"><defs><style type="text/css"></style></defs><path d="M512 512m-512 0a512 512 0 1 0 1024 0 512 512 0 1 0-1024 0Z" fill="#1E91D0" p-id="16986" data-spm-anchor-id="a313x.7781069.0.i41" class="selected"></path><path d="M400.448 519.424H327.04a9.216 9.216 0 0 1-8.512-9.792V236.8a8.576 8.576 0 0 1 12.8-8.512l66.112 43.2A27.328 27.328 0 0 1 408.96 294.4v215.232a9.216 9.216 0 0 1-8.512 9.792z" fill="#E50303" p-id="16987"></path><path d="M400.448 527.168H327.04a16.96 16.96 0 0 1-16.256-17.536V236.8A17.6 17.6 0 0 1 320 221.056a15.104 15.104 0 0 1 15.744 0.704l65.856 43.2a35.2 35.2 0 0 1 15.104 29.44v215.232a16.96 16.96 0 0 1-16.256 17.536zM327.04 234.688a2.56 2.56 0 0 0-0.64 2.112v272.832a2.432 2.432 0 0 0 0.832 2.048h73.152a2.496 2.496 0 0 0 0.832-2.048V294.4a19.584 19.584 0 0 0-8.128-16.512z" fill="" p-id="16988"></path><path d="M304.832 367.296l123.328 0 0 252.992-123.328 0 0-252.992Z" fill="#FFFFFF" p-id="16989"></path><path d="M397.184 628.032h-61.376a38.72 38.72 0 0 1-38.4-38.4v-191.36a38.72 38.72 0 0 1 38.4-38.4h61.376a38.72 38.72 0 0 1 38.4 38.4v191.104a38.72 38.72 0 0 1-38.4 38.656zM335.808 375.04a23.232 23.232 0 0 0-23.232 23.232v191.104a23.232 23.232 0 0 0 23.232 23.232h61.376a23.232 23.232 0 0 0 23.232-23.232V398.272a23.232 23.232 0 0 0-23.232-23.232z" fill="" p-id="16990"></path><path d="M263.744 501.824l205.504 0 0 295.296-205.504 0 0-295.296Z" fill="#FF6B8B" p-id="16991"></path><path d="M431.168 804.8H301.76A45.824 45.824 0 0 1 256 759.04V539.84a45.824 45.824 0 0 1 45.76-45.824h129.408a45.824 45.824 0 0 1 45.824 45.824v219.2a45.824 45.824 0 0 1-45.824 45.76zM301.76 509.568a30.336 30.336 0 0 0-30.336 30.336v219.136a30.336 30.336 0 0 0 30.336 30.336h129.408a30.336 30.336 0 0 0 30.336-30.336V539.84a30.336 30.336 0 0 0-30.336-30.336z" fill="" p-id="16992"></path><path d="M759.552 797.056H527.744L558.4 435.2a27.328 27.328 0 0 1 27.2-25.6h109.888a34.048 34.048 0 0 1 33.92 31.168z" fill="#FF6B8B" p-id="16993"></path><path d="M768 804.8H519.296L550.4 434.24a34.816 34.816 0 0 1 34.944-32h109.888a41.536 41.536 0 0 1 41.6 38.4z m-231.872-15.488h215.04L721.728 441.6a26.176 26.176 0 0 0-26.24-24.064H585.6a19.2 19.2 0 0 0-19.2 17.92z" fill="" p-id="16994"></path><path d="M532.352 742.4l-4.608 54.656h231.872l-4.672-54.656H532.352z" fill="#FFFFFF" p-id="16995"></path><path d="M768 804.8H519.296l5.952-70.4h236.8z m-231.872-15.488h215.04l-3.328-39.232H539.456z" fill="" p-id="16996"></path><path d="M712.576 409.6V336.64a69.12 69.12 0 0 0-68.928-68.928A69.12 69.12 0 0 0 574.72 336.64V409.6z" fill="#FFFFFF" p-id="16997"></path><path d="M720.32 417.664h-153.6V336.64a76.8 76.8 0 1 1 153.6 0zM582.4 402.176h122.304V336.64a61.184 61.184 0 0 0-122.304 0zM712.512 709.312a7.744 7.744 0 0 1-7.68-6.976L691.2 565.632a7.7504 7.7504 0 0 1 15.424-1.536l13.888 136.704a7.744 7.744 0 0 1-6.912 8.512zM693.248 519.296a7.744 7.744 0 0 1-7.68-6.976l-3.52-34.56a7.7504 7.7504 0 1 1 15.424-1.536l3.52 34.56a7.744 7.744 0 0 1-6.912 8.512z" fill="" p-id="16998"></path></svg>