<?xml version="1.0" standalone="no"?><!DOCTYPE svg PUBLIC "-//W3C//DTD SVG 1.1//EN" "http://www.w3.org/Graphics/SVG/1.1/DTD/svg11.dtd"><svg t="1561080301448" class="icon" viewBox="0 0 1024 1024" version="1.1" xmlns="http://www.w3.org/2000/svg" p-id="31638" xmlns:xlink="http://www.w3.org/1999/xlink" width="128" height="128"><defs><style type="text/css"></style></defs><path d="M932.16 422.336a304.928 304.928 0 0 0-79.68-109.92c-52.288-45.856-117.92-72.192-189.792-76.224a35.008 35.008 0 0 0-3.904 69.888c56.128 3.136 107.136 23.52 147.584 58.976 52.896 46.368 82.24 113.568 82.624 189.216 0.416 77.248-29.248 153.888-83.488 215.776s-126.304 101.312-202.976 111.04a285.184 285.184 0 0 1-35.904 2.304c-61.44 0-118.144-20.544-162.496-59.424-39.872-34.976-66.656-82.144-77.408-136.48a35.008 35.008 0 0 0-68.672 13.568c13.76 69.6 48.32 130.304 99.936 175.52a305.216 305.216 0 0 0 119.392 64.576c28.864 8.128 58.784 12.192 89.312 12.192 14.752 0 29.632-0.96 44.64-2.848 93.632-11.872 181.28-59.584 246.816-134.336s101.344-167.904 100.832-262.272a336.48 336.48 0 0 0-26.816-131.584zM273.216 294.528c34.688-39.552 80.704-66.432 129.632-75.68a20 20 0 0 0-7.424-39.296c-57.664 10.912-111.744 42.368-152.288 88.64a278.016 278.016 0 0 0-53.344 90.56 253.984 253.984 0 0 0-14.656 97.76 20.032 20.032 0 0 0 19.968 19.008l1.024-0.032a20 20 0 0 0 18.976-20.96c-2.816-56.32 18.368-114.624 58.112-159.968z" fill="#1E91D0" p-id="31639" data-spm-anchor-id="a313x.7781069.0.i88" class="selected"></path><path d="M186.784 221.696c70.88-80.864 175.168-122.4 272.16-108.352a19.968 19.968 0 1 0 5.728-39.584c-53.536-7.744-110.048-0.928-163.392 19.712a371.776 371.776 0 0 0-144.576 101.888 372.576 372.576 0 0 0-81.12 152.832c-13.76 54.144-14.112 109.856-1.024 161.152a20 20 0 0 0 24.448 14.432l-0.128 0.032a20.032 20.032 0 0 0 14.432-24.32c-24-94.048 3.488-197.888 73.472-277.728z m118.144 391.232c8.224-0.48 16.288-1.952 24.16-4.352 7.36-2.24 14.208-5.632 20.736-9.696 9.728-6.048 18.464-13.376 26.72-21.248 12-11.456 22.976-23.84 33.568-36.608 14.784-17.856 29.408-35.84 44.16-53.696 13.824-16.736 28.256-32.896 43.072-48.736 15.552-16.64 31.168-33.216 46.56-49.984 11.264-12.256 21.888-25.056 31.232-38.88a141.44 141.44 0 0 0 15.264-28.544c2.752-7.264 4.512-14.752 5.184-22.528 0.544-6.208 0.704-12.416 0.16-18.592-0.96-10.88-3.712-21.152-10.464-30.016a41.696 41.696 0 0 0-22.368-14.88 58.24 58.24 0 0 0-12.64-2.08c-0.256 0-0.48-0.096-0.736-0.128h-7.648l-5.824 0.576a121.088 121.088 0 0 0-23.072 4.992 221.248 221.248 0 0 0-40.16 17.44c-17.376 9.504-33.696 20.608-49.344 32.736-14.912 11.584-29.056 24.032-42.56 37.216a581.184 581.184 0 0 0-59.936 68.352l-1.088 1.504a466.016 466.016 0 0 0-44.576 72.448 286.848 286.848 0 0 0-19.84 51.648 172.8 172.8 0 0 0-4.864 25.216c-0.256 2.176-0.352 4.352-0.544 6.528l-0.192 1.728v9.376c0.224 2.176 0.384 4.32 0.672 6.496 1.344 10.592 4.576 20.448 11.648 28.736 5.536 6.464 12.544 10.592 20.64 12.96 7.232 2.112 14.624 2.56 22.112 2.144z" fill="#1E91D0" p-id="31640" data-spm-anchor-id="a313x.7781069.0.i87" class="selected"></path></svg>