<?xml version="1.0" standalone="no"?><!DOCTYPE svg PUBLIC "-//W3C//DTD SVG 1.1//EN" "http://www.w3.org/Graphics/SVG/1.1/DTD/svg11.dtd"><svg t="1561080378860" class="icon" viewBox="0 0 1024 1024" version="1.1" xmlns="http://www.w3.org/2000/svg" p-id="34937" xmlns:xlink="http://www.w3.org/1999/xlink" width="128" height="128"><defs><style type="text/css"></style></defs><path d="M416 864h192v32H416zM416 128h192v48H416z" fill="#FFFFFF" p-id="34938"></path><path d="M672 224a336 336 0 0 1 0 592v144H352v-144a336 336 0 0 1 0-592V64h320z m112 320h-48a32 32 0 0 1 0-64h48a272 272 0 0 0-240-240v48a32 32 0 0 1-64 0v-48a272 272 0 0 0-240 240h64a32 32 0 0 1 0 64h-64a272 272 0 0 0 240 240v-64a32 32 0 0 1 64 0v48a272 272 0 0 0 240-224zM608 896v-32H416v32z m0-720V128H416v48z" fill="#305CBC" p-id="34939"></path><path d="M736 544h48a272 272 0 0 1-240 240v-64a32 32 0 0 0-64 0v48a272 272 0 0 1-240-224h64a32 32 0 0 0 0-64h-64a272 272 0 0 1 240-240v48a32 32 0 0 0 64 0v-48a272 272 0 0 1 240 240h-48a32 32 0 0 0 0 64z m-64-160a32 32 0 0 0 0-48h-32l-128 128-64-64h-32a32 32 0 0 0 0 48l80 80h48v-16z" fill="#1E91D0" p-id="34940" data-spm-anchor-id="a313x.7781069.0.i92" class="selected"></path><path d="M672 352a32 32 0 0 1 0 48l-128 128v32h-48l-80-80a32 32 0 0 1 0-48h48l64 64 128-128z" fill="#305CBC" p-id="34941"></path></svg>