<?xml version="1.0" standalone="no"?><!DOCTYPE svg PUBLIC "-//W3C//DTD SVG 1.1//EN" "http://www.w3.org/Graphics/SVG/1.1/DTD/svg11.dtd"><svg t="1561079794627" class="icon" viewBox="0 0 1024 1024" version="1.1" xmlns="http://www.w3.org/2000/svg" p-id="7201" xmlns:xlink="http://www.w3.org/1999/xlink" width="128" height="128"><defs><style type="text/css"></style></defs><path d="M787.1 370.11h72.56a15.5 15.5 0 0 0 15.5-15.5V214.42a5.25 5.25 0 0 0-1.54-3.75c-13-12.72-28.46-3.75-28.46 8.84v115.43a5.17 5.17 0 0 1-5.17 5.17H782a5.25 5.25 0 0 0-3.75 1.54c-12.71 12.95-3.74 28.46 8.85 28.46z" fill="#FF8429" p-id="7202"></path><path d="M727.1 355.6m-15 0a15 15 0 1 0 30 0 15 15 0 1 0-30 0Z" fill="#FF8429" p-id="7203"></path><path d="M382.16 38.11h-345v345a100 100 0 0 0 100 100h345v-345a100 100 0 0 0-100-100z m20 365h-265a20 20 0 0 1-20-20v-265h265a20 20 0 0 1 20 20z" fill="#FED805" p-id="7204"></path><path d="M542.16 138.11v345h345a100 100 0 0 0 100-100v-345h-345a100 100 0 0 0-100 100z m345 265h-265v-265a20 20 0 0 1 20-20h265v265a20 20 0 0 1-20 20zM37.16 641.11v345h345a100 100 0 0 0 100-100v-345h-345a100 100 0 0 0-100 100z m345 265h-265v-265a20 20 0 0 1 20-20h265v265a20 20 0 0 1-20 20z" fill="#1E91D0" p-id="7205" data-spm-anchor-id="a313x.7781069.0.i16" class=""></path><path d="M887.16 541.11h-345v345a100 100 0 0 0 100 100h345v-345a100 100 0 0 0-100-100z m20 365h-265a20 20 0 0 1-20-20v-265h265a20 20 0 0 1 20 20z" fill="#FF8429" p-id="7206"></path></svg>