<?xml version="1.0" standalone="no"?><!DOCTYPE svg PUBLIC "-//W3C//DTD SVG 1.1//EN" "http://www.w3.org/Graphics/SVG/1.1/DTD/svg11.dtd"><svg t="1561080235697" class="icon" viewBox="0 0 1024 1024" version="1.1" xmlns="http://www.w3.org/2000/svg" p-id="30533" xmlns:xlink="http://www.w3.org/1999/xlink" width="128" height="128"><defs><style type="text/css"></style></defs><path d="M821.86112 529.18144c0 168.1536-136.32256 304.48512-304.48256 304.48512-168.16256 0-304.48384-136.33152-304.48384-304.48512 0-168.16512 136.32128-304.48384 304.48384-304.48384 168.16-0.00128 304.48256 136.31872 304.48256 304.48384z" fill="#1E91D0" p-id="30534" data-spm-anchor-id="a313x.7781069.0.i79" class="selected"></path><path d="M668.14464 785.04832H366.71616c-21.57312 0-39.1168-17.54368-39.1168-39.11808V465.84576l-28.31104 29.23776c-7.072 7.31776-17.36064 11.51744-28.2176 11.51744-10.42432 0-20.02688-3.73504-27.0656-10.51008l-88.78208-85.80352c-7.49056-7.19616-11.71968-16.95488-11.88992-27.456-0.18688-10.4128 3.6928-20.2944 10.94272-27.80288l139.54688-144.4416c17.18016-17.80096 25.41696-20.25472 31.75552-20.25472h87.87072c23.28192 0 28.35072 1.6064 33.67936 7.12192l5.64096 5.8624-0.26624 8.19584c0.00256 16.3648 6.19264 30.52288 17.89312 40.89088 11.6672 10.33344 28.37632 16.02304 47.04512 16.02304 18.56384 0 35.22048-5.65888 46.8992-15.9424 11.61216-10.22464 18.00704-24.76416 18.00704-40.96512v-7.52256l5.02656-6.11584c6.04288-6.31296 11.99232-7.54816 34.02752-7.54816h87.87456c6.36416 0 14.62144 2.45376 31.77216 20.26496l139.53024 144.42112c7.232 7.47392 11.12704 17.35168 10.96704 27.80288-0.19584 10.52032-4.43136 20.28032-11.92704 27.50848l-88.75904 85.73568c-7.27424 7.05792-16.91904 10.94272-27.15392 10.94272-10.56256 0-20.81152-4.34304-28.12416-11.90272l-28.25088-29.2544-0.0832 280.08576c0 21.568-17.53856 39.11168-39.10272 39.11168zM340.88576 409.23136c11.9936 0 24.91264 9.17888 24.91264 29.3376v307.36256c0 0.50176 0.42624 0.93312 0.91776 0.93312l301.42976-0.01664a0.9216 0.9216 0 0 0 0.91008-0.91776V438.56896c0-20.15872 12.91904-29.3376 24.9152-29.3376 5.34656 0 13.46432 1.8048 21.80096 10.40256l47.27424 48.92288c0.3008 0.31232 0.52992 0.50688 0.68608 0.60928 0.08576-0.10368 0.3392-0.29312 0.66432-0.59904l88.6656-85.68448 7.05408-8.09344-7.00544 6.75968L713.56672 237.12c-4.02688-4.18304-7.39072-7.06048-9.28896-8.58752l-85.34528 0.02048c-8.39936 46.76224-48.98688 78.06848-101.4912 78.06848-26.6176 0-50.49088-7.85536-69.03424-22.72256-17.53344-14.06464-28.79872-33.1776-32.63872-55.35104l-2.31936-0.01536h-82.88128c-1.87264 1.50656-5.25696 4.40064-9.32096 8.59264L181.72544 381.568l0.03968 1.28 88.768 85.74976c0.29312 0.288 0.52096 0.46592 0.67968 0.5696 0.08832-0.10368 0.29568-0.29312 0.57472-0.57984l47.2576-48.91264c8.35328-8.63488 16.48512-10.44352 21.84064-10.44352z" fill="#666666" p-id="30535"></path></svg>